<?xml version="1.0" encoding="utf-8" standalone="no"?>
<!DOCTYPE svg PUBLIC "-//W3C//DTD SVG 1.1//EN"
  "http://www.w3.org/Graphics/SVG/1.1/DTD/svg11.dtd">
<svg xmlns:xlink="http://www.w3.org/1999/xlink" width="1296pt" height="720pt" viewBox="0 0 1296 720" xmlns="http://www.w3.org/2000/svg" version="1.1">
 <metadata>
  <rdf:RDF xmlns:dc="http://purl.org/dc/elements/1.1/" xmlns:cc="http://creativecommons.org/ns#" xmlns:rdf="http://www.w3.org/1999/02/22-rdf-syntax-ns#">
   <cc:Work>
    <dc:type rdf:resource="http://purl.org/dc/dcmitype/StillImage"/>
    <dc:date>2025-05-22T12:04:59.746763</dc:date>
    <dc:format>image/svg+xml</dc:format>
    <dc:creator>
     <cc:Agent>
      <dc:title>Matplotlib v3.9.2, https://matplotlib.org/</dc:title>
     </cc:Agent>
    </dc:creator>
   </cc:Work>
  </rdf:RDF>
 </metadata>
 <defs>
  <style type="text/css">*{stroke-linejoin: round; stroke-linecap: butt}</style>
 </defs>
 <g id="figure_1">
  <g id="patch_1">
   <path d="M 0 720 
L 1296 720 
L 1296 0 
L 0 0 
L 0 720 
z
" style="fill: none"/>
  </g>
  <g id="axes_1">
   <g id="line2d_1">
    <path d="M 0 315.628276 
L 0.494405 319.877071 
L 1.153611 327.644683 
L 1.97762 340.268754 
L 3.131231 361.884232 
L 6.09766 420.02374 
L 6.921668 432.006643 
L 7.580875 439.142973 
L 8.07528 442.862863 
L 8.569685 445.083006 
L 8.899288 445.702336 
L 9.06409 445.750567 
L 9.228891 445.624138 
L 9.558494 444.848907 
L 9.888098 443.384381 
L 10.382503 439.929691 
L 11.041709 433.108223 
L 11.865717 421.433466 
L 12.854527 403.825896 
L 16.809766 328.336673 
L 17.633774 318.576698 
L 18.292981 313.54076 
L 18.787386 311.528397 
L 19.116989 311.057116 
L 19.28179 311.085183 
L 19.611394 311.668508 
L 19.940997 312.949106 
L 20.435402 316.146653 
L 21.094608 322.668289 
L 21.918616 334.051262 
L 22.907426 351.44702 
L 24.720244 388.562324 
L 26.203459 417.117252 
L 27.192269 431.97372 
L 27.851475 439.152771 
L 28.34588 442.877919 
L 28.840285 445.078935 
L 29.169888 445.671816 
L 29.33469 445.702763 
L 29.499491 445.556395 
L 29.829095 444.733549 
L 30.158698 443.211594 
L 30.653103 439.65408 
L 31.312309 432.669768 
L 32.136317 420.764584 
L 33.125127 402.872944 
L 36.915565 329.349955 
L 37.739573 319.057826 
L 38.398779 313.590954 
L 38.893184 311.266125 
L 39.222787 310.596199 
L 39.387589 310.52868 
L 39.552391 310.639898 
L 39.881994 311.39703 
L 40.211597 312.859859 
L 40.706002 316.342032 
L 41.365209 323.25236 
L 42.189217 335.108623 
L 43.178026 353.002041 
L 47.133266 429.229506 
L 47.957274 438.861076 
L 48.451679 442.745784 
L 48.946083 445.088291 
L 49.275687 445.763528 
L 49.440488 445.831705 
L 49.60529 445.719806 
L 49.934893 444.957299 
L 50.264496 443.483828 
L 50.758901 439.976256 
L 51.418108 433.016203 
L 52.242116 421.077795 
L 53.230926 403.069946 
L 57.021363 328.967246 
L 57.845371 318.660527 
L 58.504578 313.234232 
L 58.998983 310.971603 
L 59.328586 310.358037 
L 59.493388 310.323018 
L 59.658189 310.469518 
L 59.987792 311.305196 
L 60.317396 312.85647 
L 60.811801 316.487503 
L 61.471007 323.61959 
L 62.295015 335.772681 
L 63.283825 354.01374 
L 67.074262 428.29437 
L 67.898271 438.437566 
L 68.557477 443.684504 
L 69.051882 445.788668 
L 69.381485 446.287225 
L 69.546287 446.262399 
L 69.711089 446.054719 
L 70.040692 445.093396 
L 70.370295 443.413348 
L 70.8647 439.586749 
L 71.523906 432.198123 
L 72.347915 419.750258 
L 73.501526 397.872986 
L 76.632757 334.734964 
L 77.456765 322.783461 
L 78.115972 315.880949 
L 78.610376 312.460908 
L 78.93998 311.067786 
L 79.269583 310.403306 
L 79.434385 310.346977 
L 79.599186 310.475017 
L 79.928789 311.282503 
L 80.258393 312.817384 
L 80.752798 316.445884 
L 81.412004 323.614056 
L 82.236012 335.867993 
L 83.224822 354.289526 
L 87.015259 429.151014 
L 87.839268 439.257439 
L 88.498474 444.413494 
L 88.992879 446.413987 
L 89.322482 446.827418 
L 89.487284 446.755513 
L 89.816887 446.05526 
L 90.14649 444.620034 
L 90.640895 441.124833 
L 91.300102 434.100456 
L 92.12411 421.966631 
L 93.11292 403.599467 
L 96.903357 328.277133 
L 97.727365 318.019749 
L 98.386572 312.753867 
L 98.880977 310.681688 
L 99.21058 310.226798 
L 99.375381 310.280073 
L 99.704985 310.947534 
L 100.034588 312.356191 
L 100.528993 315.823654 
L 101.188199 322.833878 
L 102.012208 334.984852 
L 103.001017 353.415344 
L 106.791455 429.0718 
L 107.615463 439.344208 
L 108.274669 444.594004 
L 108.769074 446.636922 
L 109.098678 447.064209 
L 109.263479 446.994778 
L 109.593082 446.290496 
L 109.922686 444.83935 
L 110.417091 441.298673 
L 111.076297 434.176611 
L 111.900305 421.872116 
L 112.889115 403.256845 
L 116.679552 327.336321 
L 117.503561 317.163312 
L 117.997965 313.049361 
L 118.49237 310.561733 
L 118.821974 309.839578 
L 118.986775 309.763269 
L 119.151577 309.877309 
L 119.48118 310.674786 
L 119.810783 312.223445 
L 120.305188 315.915695 
L 120.964395 323.242479 
L 121.788403 335.790521 
L 122.777213 354.648997 
L 126.402848 428.018617 
L 127.226857 438.684989 
L 127.886063 444.235209 
L 128.380468 446.483895 
L 128.710071 447.035701 
L 128.874873 447.024159 
L 129.039674 446.820786 
L 129.369278 445.841155 
L 129.698881 444.107349 
L 130.193286 440.136296 
L 130.852492 432.446997 
L 131.676501 419.484938 
L 132.830112 396.749085 
L 135.796541 334.868086 
L 136.620549 322.340799 
L 137.279756 315.082513 
L 137.774161 311.474825 
L 138.268566 309.546687 
L 138.598169 309.220635 
L 138.76297 309.347721 
L 139.092574 310.180528 
L 139.422177 311.776419 
L 139.916582 315.560225 
L 140.575788 323.042294 
L 141.399797 335.822342 
L 142.388606 354.979498 
L 145.84944 426.285052 
L 146.673449 437.578536 
L 147.332655 443.643272 
L 147.82706 446.268251 
L 148.156663 447.060668 
L 148.321465 447.165303 
L 148.486267 447.074922 
L 148.81587 446.310504 
L 149.145473 444.775698 
L 149.639878 441.068525 
L 150.299084 433.658558 
L 151.123093 420.918739 
L 152.111902 401.740439 
L 155.572737 330.019705 
L 156.396745 318.629281 
L 157.055951 312.507234 
L 157.550356 309.854176 
L 157.879959 309.050885 
L 158.044761 308.943257 
L 158.209563 309.032299 
L 158.539166 309.799019 
L 158.868769 311.342719 
L 159.363174 315.075201 
L 160.02238 322.539417 
L 160.846389 335.37387 
L 161.835198 354.689558 
L 165.296033 426.747494 
L 166.120041 438.116397 
L 166.779247 444.184025 
L 167.273652 446.775257 
L 167.603255 447.528049 
L 167.768057 447.607853 
L 167.932859 447.489386 
L 168.262462 446.659403 
L 168.592065 445.047283 
L 169.08647 441.204667 
L 169.745677 433.585502 
L 170.569685 420.558431 
L 171.558494 401.040776 
L 175.019329 328.966643 
L 175.843337 317.807595 
L 176.502543 311.964355 
L 176.996948 309.569621 
L 177.326551 308.958968 
L 177.491353 308.95304 
L 177.656155 309.146997 
L 177.985758 310.131967 
L 178.315361 311.902968 
L 178.809766 315.987179 
L 179.468973 323.924406 
L 180.292981 337.320105 
L 181.446592 360.784594 
L 184.413021 423.882815 
L 185.23703 436.289648 
L 185.896236 443.262987 
L 186.390641 446.547786 
L 186.720244 447.759208 
L 187.049847 448.169811 
L 187.214649 448.072852 
L 187.544252 447.275607 
L 187.873856 445.682308 
L 188.36826 441.841871 
L 189.027467 434.17901 
L 189.851475 421.03174 
L 190.840285 401.300826 
L 194.136317 331.266247 
L 194.960326 319.324705 
L 195.619532 312.822448 
L 196.113937 309.936346 
L 196.44354 309.007074 
L 196.608342 308.845955 
L 196.773143 308.888069 
L 196.937945 309.133342 
L 197.267548 310.230106 
L 197.597152 312.123854 
L 198.091556 316.408876 
L 198.750763 324.634264 
L 199.574771 338.396699 
L 200.728383 362.315442 
L 203.53001 422.748968 
L 204.354018 435.624445 
L 205.013225 442.975825 
L 205.50763 446.53119 
L 205.837233 447.912029 
L 206.166836 448.480636 
L 206.331638 448.457768 
L 206.496439 448.229939 
L 206.826043 447.162463 
L 207.155646 445.290315 
L 207.650051 441.023001 
L 208.309257 432.794207 
L 209.133266 418.987713 
L 210.286877 394.950149 
L 213.088505 334.175991 
L 213.912513 321.249446 
L 214.571719 313.887167 
L 215.066124 310.34273 
L 215.395727 308.978392 
L 215.725331 308.433494 
L 215.890132 308.47083 
L 216.054934 308.714803 
L 216.384537 309.819343 
L 216.71414 311.734417 
L 217.208545 316.075493 
L 217.867752 324.415417 
L 218.69176 338.369377 
L 219.845371 362.595572 
L 222.482197 420.463258 
L 223.306205 434.009412 
L 223.965412 441.936864 
L 224.459817 445.926301 
L 224.954222 448.115028 
L 225.283825 448.542179 
L 225.448627 448.443157 
L 225.77823 447.621101 
L 226.107833 445.975812 
L 226.602238 442.008703 
L 227.261445 434.095401 
L 228.085453 420.533559 
L 229.239064 396.552802 
L 232.205493 331.880406 
L 233.029502 319.311953 
L 233.688708 312.365569 
L 234.183113 309.199159 
L 234.512716 308.113581 
L 234.677518 307.884324 
L 234.842319 307.865271 
L 235.007121 308.056524 
L 235.336724 309.067212 
L 235.666328 310.904665 
L 236.160732 315.161094 
L 236.819939 323.448403 
L 237.643947 337.429235 
L 238.797558 361.836687 
L 241.434385 420.359746 
L 242.258393 434.053459 
L 242.917599 442.046707 
L 243.412004 446.049517 
L 243.906409 448.218794 
L 244.236012 448.614605 
L 244.400814 448.494498 
L 244.730417 447.619793 
L 245.06002 445.908572 
L 245.554425 441.820096 
L 246.213632 433.710779 
L 247.03764 419.870057 
L 248.191251 395.498871 
L 250.992879 333.415221 
L 251.816887 320.240455 
L 252.476094 312.790205 
L 252.970498 309.254175 
L 253.300102 307.932547 
L 253.629705 307.460129 
L 253.794507 307.544701 
L 254.12411 308.354401 
L 254.453713 310.009289 
L 254.948118 314.030701 
L 255.607325 322.084688 
L 256.431333 335.910908 
L 257.584944 360.352642 
L 260.386572 422.830158 
L 261.21058 436.107825 
L 261.869786 443.616969 
L 262.364191 447.180144 
L 262.693795 448.511017 
L 263.023398 448.98538 
L 263.188199 448.899034 
L 263.517803 448.080362 
L 263.847406 446.409478 
L 264.341811 442.351786 
L 265.001017 434.229664 
L 265.825025 420.295842 
L 266.978637 395.691286 
L 269.780264 333.04766 
L 270.604273 319.845499 
L 271.263479 312.445667 
L 271.757884 308.991908 
L 272.087487 307.746025 
L 272.417091 307.365356 
L 272.581892 307.501509 
L 272.911495 308.42501 
L 273.241099 310.206633 
L 273.735504 314.438458 
L 274.39471 322.799581 
L 275.218718 337.024074 
L 276.37233 361.971343 
L 279.009156 421.708942 
L 279.833164 435.524025 
L 280.49237 443.470808 
L 280.986775 447.349283 
L 281.316378 448.87853 
L 281.645982 449.53866 
L 281.810783 449.539716 
L 281.975585 449.321138 
L 282.305188 448.228261 
L 282.634791 446.273145 
L 283.129196 441.778638 
L 283.788403 433.075951 
L 284.612411 418.467268 
L 285.766022 393.130168 
L 288.238047 336.667238 
L 289.062055 322.436674 
L 289.721261 314.121219 
L 290.215666 309.959253 
L 290.710071 307.711011 
L 291.039674 307.309419 
L 291.204476 307.440877 
L 291.534079 308.36656 
L 291.863683 310.165597 
L 292.358087 314.450871 
L 293.017294 322.929015 
L 293.841302 337.356455 
L 294.994914 362.636778 
L 297.63174 422.841332 
L 298.455748 436.593253 
L 299.114954 444.396879 
L 299.609359 448.114314 
L 299.938962 449.512032 
L 300.268566 450.022779 
L 300.433367 449.942962 
L 300.76297 449.113904 
L 301.092574 447.401712 
L 301.586979 443.226417 
L 302.246185 434.853828 
L 303.070193 420.489578 
L 304.223805 395.176189 
L 306.860631 334.554847 
L 307.684639 320.652429 
L 308.343845 312.745231 
L 308.83825 308.965136 
L 309.167854 307.534206 
L 309.497457 306.997717 
L 309.662258 307.06758 
L 309.991862 307.88269 
L 310.321465 309.588929 
L 310.81587 313.770014 
L 311.475076 322.175899 
L 312.299084 336.615669 
L 313.452696 362.071443 
L 316.089522 422.922476 
L 316.91353 436.802433 
L 317.572737 444.646859 
L 318.067141 448.353304 
L 318.396745 449.722967 
L 318.726348 450.189072 
L 318.89115 450.080824 
L 319.220753 449.183112 
L 319.550356 447.387358 
L 320.044761 443.061662 
L 320.703967 434.45096 
L 321.527976 419.753601 
L 322.681587 393.98185 
L 325.318413 332.929147 
L 326.142421 319.190735 
L 326.801628 311.530255 
L 327.296033 307.99844 
L 327.625636 306.760188 
L 327.790437 306.483116 
L 327.955239 306.435574 
L 328.120041 306.617768 
L 328.449644 307.668509 
L 328.779247 309.622335 
L 329.273652 314.189546 
L 329.932859 323.117648 
L 330.756867 338.175935 
L 331.910478 364.31771 
L 334.382503 422.073846 
L 335.206511 436.295927 
L 335.865717 444.384794 
L 336.360122 448.24534 
L 336.689725 449.700373 
L 337.019329 450.236337 
L 337.18413 450.15688 
L 337.513733 449.304024 
L 337.843337 447.535844 
L 338.337742 443.219109 
L 338.996948 434.562585 
L 339.820956 419.727809 
L 340.974568 393.665266 
L 343.446592 335.273512 
L 344.2706 320.686081 
L 344.929807 312.288952 
L 345.424212 308.199874 
L 345.753815 306.597796 
L 346.083418 305.921354 
L 346.24822 305.933607 
L 346.413021 306.17979 
L 346.742625 307.370242 
L 347.072228 309.477772 
L 347.566633 314.296712 
L 348.225839 323.585697 
L 349.049847 339.100662 
L 350.203459 365.797489 
L 352.510682 420.572099 
L 353.33469 435.350379 
L 353.993896 443.89032 
L 354.488301 448.073658 
L 354.817904 449.730361 
L 355.147508 450.453817 
L 355.312309 450.461994 
L 355.477111 450.234097 
L 355.806714 449.073572 
L 356.136317 446.986891 
L 356.630722 442.182071 
L 357.289929 432.881024 
L 358.113937 417.307485 
L 359.267548 390.473349 
L 361.574771 335.430898 
L 362.398779 320.623673 
L 363.057986 312.101585 
L 363.552391 307.957581 
L 363.881994 306.339519 
L 364.211597 305.66434 
L 364.376399 305.683769 
L 364.5412 305.94148 
L 364.870804 307.167872 
L 365.200407 309.327973 
L 365.694812 314.254685 
L 366.354018 323.733303 
L 367.178026 339.535747 
L 368.331638 366.655883 
L 370.638861 421.89906 
L 371.462869 436.603997 
L 372.122075 444.97437 
L 372.61648 448.967139 
L 372.946083 450.468622 
L 373.275687 451.01632 
L 373.440488 450.929593 
L 373.770092 450.03613 
L 374.099695 448.19344 
L 374.5941 443.705307 
L 375.253306 434.72371 
L 376.077314 419.371843 
L 377.230926 392.521456 
L 379.70295 333.23834 
L 380.526958 318.855252 
L 381.186165 310.842501 
L 381.68057 307.167196 
L 382.010173 305.896418 
L 382.174975 305.622618 
L 382.339776 305.591463 
L 382.504578 305.803133 
L 382.834181 306.951621 
L 383.163784 309.053381 
L 383.658189 313.930028 
L 384.317396 323.410496 
L 385.141404 339.314615 
L 386.295015 366.711905 
L 388.602238 422.568524 
L 389.426246 437.374664 
L 390.085453 445.746734 
L 390.579858 449.68962 
L 390.909461 451.133097 
L 391.239064 451.603446 
L 391.403866 451.471053 
L 391.733469 450.473029 
L 392.063072 448.509454 
L 392.557477 443.813704 
L 393.216684 434.519121 
L 394.040692 418.751226 
L 395.194303 391.36669 
L 397.501526 335.070774 
L 398.325534 320.041494 
L 398.984741 311.497434 
L 399.479145 307.438019 
L 399.808749 305.92542 
L 400.138352 305.394147 
L 400.303154 305.499451 
L 400.632757 306.450516 
L 400.96236 308.37723 
L 401.456765 313.037343 
L 402.115972 322.321152 
L 402.93998 338.130287 
L 404.093591 365.650699 
L 406.400814 422.28108 
L 407.224822 437.377085 
L 407.884028 445.935228 
L 408.378433 449.979209 
L 408.708037 451.468745 
L 409.03764 451.966858 
L 409.202442 451.841292 
L 409.532045 450.842674 
L 409.861648 448.859642 
L 410.356053 444.100672 
L 411.015259 434.664529 
L 411.839268 418.648601 
L 412.992879 390.856045 
L 415.300102 334.009413 
L 416.12411 319.003687 
L 416.783316 310.587544 
L 417.277721 306.68793 
L 417.607325 305.310703 
L 417.772126 304.997389 
L 417.936928 304.936082 
L 418.101729 305.127059 
L 418.431333 306.262643 
L 418.760936 308.389094 
L 419.255341 313.370325 
L 419.914547 323.103182 
L 420.738555 339.461257 
L 421.892167 367.606817 
L 424.034588 420.941474 
L 424.858596 436.533503 
L 425.517803 445.479346 
L 426.012208 449.789742 
L 426.341811 451.439423 
L 426.671414 452.080657 
L 426.836216 452.019582 
L 427.001017 451.703922 
L 427.330621 450.313754 
L 427.660224 447.928695 
L 428.154629 442.560025 
L 428.813835 432.331318 
L 429.637843 415.429126 
L 430.956256 382.426866 
L 432.769074 337.049656 
L 433.593082 320.998507 
L 434.252289 311.653182 
L 434.746694 307.040631 
L 435.076297 305.193904 
L 435.4059 304.362411 
L 435.570702 304.33172 
L 435.735504 304.558264 
L 436.065107 305.779289 
L 436.39471 308.009041 
L 436.889115 313.174561 
L 437.548321 323.195018 
L 438.37233 339.945801 
L 439.525941 368.604467 
L 441.668362 422.308148 
L 442.49237 437.721658 
L 443.151577 446.382051 
L 443.645982 450.400025 
L 443.975585 451.82119 
L 444.140387 452.145481 
L 444.305188 452.210317 
L 444.46999 452.015389 
L 444.799593 450.849553 
L 445.129196 448.663669 
L 445.623601 443.541732 
L 446.282808 433.53747 
L 447.106816 416.743738 
L 448.260427 387.932628 
L 450.402848 333.857013 
L 451.226857 318.344454 
L 451.886063 309.643989 
L 452.380468 305.622787 
L 452.710071 304.212896 
L 452.874873 303.898284 
L 453.039674 303.845789 
L 453.204476 304.055676 
L 453.534079 305.25903 
L 453.863683 307.491985 
L 454.358087 312.700396 
L 455.017294 322.843109 
L 455.841302 339.829743 
L 456.994914 368.897109 
L 458.972533 419.551324 
L 459.796541 435.888929 
L 460.455748 445.354429 
L 460.950153 449.980261 
L 461.279756 451.796747 
L 461.609359 452.566366 
L 461.774161 452.554402 
L 461.938962 452.277565 
L 462.268566 450.933847 
L 462.598169 448.553731 
L 463.092574 443.11708 
L 463.75178 432.669773 
L 464.575788 415.333115 
L 465.894201 381.469375 
L 467.707019 335.257413 
L 468.531027 319.194447 
L 469.190234 310.059583 
L 469.684639 305.737891 
L 470.014242 304.146503 
L 470.343845 303.616509 
L 470.508647 303.752734 
L 470.83825 304.825642 
L 471.167854 306.952019 
L 471.662258 312.047647 
L 472.321465 322.129343 
L 473.145473 339.175505 
L 474.299084 368.527365 
L 476.441506 423.53109 
L 477.265514 439.154967 
L 477.92472 447.7931 
L 478.419125 451.673396 
L 478.748728 452.945099 
L 478.91353 453.177853 
L 479.078332 453.140329 
L 479.243133 452.832587 
L 479.572737 451.41157 
L 479.90234 448.934736 
L 480.396745 443.320928 
L 481.055951 432.5912 
L 481.879959 414.863879 
L 483.198372 380.428774 
L 484.846389 337.643204 
L 485.670397 320.821948 
L 486.329603 311.04322 
L 486.824008 306.246847 
L 487.153611 304.352888 
L 487.483215 303.537052 
L 487.648016 303.537992 
L 487.812818 303.811956 
L 488.142421 305.174346 
L 488.472024 307.60513 
L 488.966429 313.174545 
L 489.625636 323.891593 
L 490.449644 341.672964 
L 491.768057 376.316692 
L 493.416073 419.433632 
L 494.240081 436.38553 
L 494.899288 446.230321 
L 495.393693 451.048565 
L 495.723296 452.942879 
L 496.052899 453.747485 
L 496.217701 453.736621 
L 496.382503 453.449915 
L 496.712106 452.053857 
L 497.041709 449.579126 
L 497.536114 443.926744 
L 498.19532 433.074367 
L 499.019329 415.103271 
L 500.337742 380.182192 
L 501.985758 336.934726 
L 502.809766 320.060704 
L 503.468973 310.355386 
L 503.963377 305.68504 
L 504.292981 303.908151 
L 504.622584 303.234362 
L 504.787386 303.315105 
L 504.952187 303.674336 
L 505.28179 305.222279 
L 505.776195 309.568684 
L 506.2706 316.212144 
L 506.929807 328.25497 
L 507.918616 351.636607 
L 511.214649 435.504618 
L 511.873856 445.817799 
L 512.36826 450.964845 
L 512.697864 453.059801 
L 513.027467 454.046023 
L 513.192269 454.117876 
L 513.35707 453.908054 
L 513.686673 452.647167 
L 514.016277 450.281377 
L 514.510682 444.740863 
L 515.169888 433.940417 
L 515.993896 415.888119 
L 517.312309 380.582523 
L 518.960326 336.71058 
L 519.784334 319.599565 
L 520.44354 309.785613 
L 520.937945 305.09163 
L 521.267548 303.328533 
L 521.597152 302.692469 
L 521.761953 302.800935 
L 522.091556 303.869255 
L 522.42116 306.058176 
L 522.915565 311.3677 
L 523.574771 321.933005 
L 524.398779 339.818828 
L 525.552391 370.504348 
L 527.53001 423.268547 
L 528.354018 439.681138 
L 529.013225 448.735089 
L 529.50763 452.76675 
L 529.837233 454.055527 
L 530.002035 454.270988 
L 530.166836 454.198907 
L 530.331638 453.839451 
L 530.661241 452.264527 
L 531.155646 447.813284 
L 531.650051 440.993911 
L 532.309257 428.625211 
L 533.298067 404.635012 
L 536.429298 322.690995 
L 537.088505 311.63295 
L 537.582909 305.959618 
L 538.077314 302.757632 
L 538.406918 302.054858 
L 538.571719 302.138975 
L 538.736521 302.51349 
L 539.066124 304.127252 
L 539.560529 308.65671 
L 540.054934 315.574322 
L 540.71414 328.095262 
L 541.70295 352.325527 
L 544.834181 434.490194 
L 545.493388 445.401304 
L 545.987792 450.915611 
L 546.482197 453.920442 
L 546.811801 454.47325 
L 546.976602 454.309348 
L 547.306205 453.103564 
L 547.635809 450.743783 
L 548.130214 445.122768 
L 548.78942 434.062902 
L 549.613428 415.495971 
L 550.931841 379.181467 
L 552.579858 334.42236 
L 553.403866 317.280844 
L 554.063072 307.703376 
L 554.557477 303.344339 
L 554.88708 301.876898 
L 555.051882 301.585276 
L 555.216684 301.590414 
L 555.381485 301.892396 
L 555.711089 303.381468 
L 556.040692 306.030222 
L 556.535097 312.08485 
L 557.194303 323.697033 
L 558.018311 342.857124 
L 559.501526 384.51112 
L 560.984741 424.267199 
L 561.808749 440.886137 
L 562.467955 449.874347 
L 562.96236 453.71162 
L 563.291963 454.802455 
L 563.456765 454.899246 
L 563.621567 454.695927 
L 563.95117 453.392915 
L 564.280773 450.913005 
L 564.775178 445.074527 
L 565.434385 433.672936 
L 566.258393 414.642933 
L 567.576806 377.683605 
L 569.224822 332.687263 
L 570.04883 315.781433 
L 570.708037 306.576207 
L 571.202442 302.596291 
L 571.532045 301.423732 
L 571.696846 301.290706 
L 571.861648 301.4611 
L 572.191251 302.708731 
L 572.520855 305.147883 
L 573.015259 310.953558 
L 573.674466 322.363757 
L 574.498474 341.48036 
L 575.816887 378.698513 
L 577.464903 424.046346 
L 578.288911 441.063031 
L 578.948118 450.302901 
L 579.442523 454.272961 
L 579.772126 455.421506 
L 579.936928 455.537392 
L 580.101729 455.346535 
L 580.431333 454.048446 
L 580.760936 451.547081 
L 581.255341 445.629291 
L 581.914547 434.044502 
L 582.738555 414.695412 
L 584.056968 377.169438 
L 585.540183 335.747935 
L 586.364191 317.820617 
L 587.023398 307.734461 
L 587.517803 303.100042 
L 587.847406 301.508705 
L 588.012208 301.174253 
L 588.177009 301.149636 
L 588.341811 301.435075 
L 588.671414 302.93078 
L 589.001017 305.638352 
L 589.495422 311.873879 
L 590.154629 323.878061 
L 590.978637 343.699696 
L 592.461851 386.626822 
L 593.780264 423.116284 
L 594.604273 440.721734 
L 595.263479 450.403106 
L 595.757884 454.661145 
L 596.087487 455.973588 
L 596.252289 456.161794 
L 596.417091 456.036409 
L 596.746694 454.847718 
L 597.076297 452.425851 
L 597.570702 446.569924 
L 598.229908 434.963093 
L 599.053917 415.438797 
L 600.37233 377.414487 
L 601.855544 335.425025 
L 602.679552 317.322036 
L 603.338759 307.212202 
L 603.833164 302.637119 
L 604.162767 301.122734 
L 604.327569 300.837734 
L 604.49237 300.869663 
L 604.657172 301.218505 
L 604.986775 302.860423 
L 605.316378 305.73765 
L 605.810783 312.263698 
L 606.46999 324.699072 
L 607.293998 345.070789 
L 608.942014 393.666066 
L 610.095626 425.316027 
L 610.919634 442.595775 
L 611.57884 451.803023 
L 612.073245 455.592214 
L 612.402848 456.545592 
L 612.56765 456.542257 
L 612.732452 456.218319 
L 613.062055 454.614775 
L 613.391658 451.760326 
L 613.886063 445.23921 
L 614.54527 432.75885 
L 615.369278 412.261948 
L 617.017294 363.306371 
L 618.170905 331.44966 
L 618.994914 314.10611 
L 619.65412 304.915197 
L 620.148525 301.180341 
L 620.478128 300.282815 
L 620.64293 300.319676 
L 620.807731 300.68068 
L 621.137335 302.368248 
L 621.466938 305.318439 
L 621.961343 312.000469 
L 622.620549 324.714193 
L 623.444557 345.499652 
L 625.092574 394.834525 
L 626.246185 426.65269 
L 627.070193 443.773531 
L 627.7294 452.670494 
L 628.223805 456.125044 
L 628.553408 456.811788 
L 628.71821 456.663523 
L 629.047813 455.386137 
L 629.377416 452.820118 
L 629.871821 446.652208 
L 630.531027 434.481221 
L 631.355036 414.10413 
L 632.83825 369.667626 
L 634.156663 332.041104 
L 634.980671 314.159731 
L 635.639878 304.594835 
L 636.134283 300.636565 
L 636.463886 299.62373 
L 636.628688 299.613944 
L 636.793489 299.935926 
L 637.123093 301.568839 
L 637.452696 304.495865 
L 637.947101 311.201045 
L 638.606307 324.044741 
L 639.430315 345.117556 
L 641.078332 395.172304 
L 642.231943 427.325923 
L 643.055951 444.478958 
L 643.550356 451.513137 
L 644.044761 455.752486 
L 644.374364 456.939794 
L 644.539166 457.031681 
L 644.703967 456.787875 
L 645.033571 455.298214 
L 645.363174 452.495065 
L 645.857579 445.935529 
L 646.516785 433.205776 
L 647.340793 412.146068 
L 648.98881 361.766101 
L 650.142421 329.242652 
L 650.966429 311.836487 
L 651.625636 302.905251 
L 651.955239 300.337523 
L 652.284842 299.102438 
L 652.449644 298.992489 
L 652.614446 299.222226 
L 652.944049 300.695891 
L 653.273652 303.499198 
L 653.768057 310.088138 
L 654.427263 322.90561 
L 655.251272 344.132468 
L 656.899288 394.886672 
L 658.052899 427.551959 
L 658.876907 444.936848 
L 659.371312 452.027238 
L 659.865717 456.251394 
L 660.19532 457.387627 
L 660.360122 457.441807 
L 660.524924 457.152378 
L 660.854527 455.548651 
L 661.18413 452.603161 
L 661.678535 445.784656 
L 662.337742 432.648588 
L 663.16175 411.04609 
L 666.457782 316.236049 
L 667.116989 305.34408 
L 667.611394 300.46149 
L 667.940997 298.890401 
L 668.105799 298.623006 
L 668.2706 298.703306 
L 668.435402 299.131098 
L 668.765005 301.020763 
L 669.094608 304.260164 
L 669.589013 311.522421 
L 670.24822 325.225121 
L 671.072228 347.430024 
L 674.203459 438.847733 
L 674.862665 450.362673 
L 675.35707 455.720447 
L 675.686673 457.60087 
L 675.851475 458.018573 
L 676.016277 458.084792 
L 676.181078 457.799099 
L 676.510682 456.178037 
L 676.840285 453.18291 
L 677.33469 446.233584 
L 677.993896 432.834585 
L 678.817904 410.812343 
L 682.113937 315.071753 
L 682.773143 304.417988 
L 683.267548 299.828613 
L 683.597152 298.503705 
L 683.761953 298.373298 
L 683.926755 298.599102 
L 684.256358 300.114374 
L 684.585961 303.023824 
L 685.080366 309.884918 
L 685.739573 323.243367 
L 686.563581 345.331555 
L 689.859613 441.933507 
L 690.51882 452.702795 
L 691.013225 457.337888 
L 691.342828 458.671836 
L 691.50763 458.800187 
L 691.672431 458.567959 
L 692.002035 457.02698 
L 692.331638 454.07543 
L 692.826043 447.123558 
L 693.485249 433.603365 
L 694.309257 411.278487 
L 697.60529 314.323267 
L 698.264496 303.739546 
L 698.758901 299.306939 
L 699.088505 298.135089 
L 699.253306 298.095011 
L 699.418108 298.419837 
L 699.747711 300.157299 
L 700.077314 303.31725 
L 700.571719 310.594884 
L 701.230926 324.549481 
L 702.054934 347.361418 
L 705.186165 441.068193 
L 705.845371 452.472766 
L 706.339776 457.538983 
L 706.669379 459.126374 
L 706.834181 459.369206 
L 706.998983 459.242539 
L 707.163784 458.746793 
L 707.493388 456.658176 
L 707.987792 450.864113 
L 708.482197 442.094409 
L 709.141404 426.405569 
L 710.130214 396.728401 
L 712.437436 324.990874 
L 713.096643 310.658517 
L 713.591048 303.125936 
L 714.085453 298.71183 
L 714.415056 297.599394 
L 714.579858 297.602989 
L 714.744659 297.980557 
L 715.074262 299.849538 
L 715.403866 303.173068 
L 715.898271 310.746871 
L 716.557477 325.162039 
L 717.381485 348.578601 
L 720.347915 439.428188 
L 721.007121 451.656333 
L 721.501526 457.312951 
L 721.831129 459.264477 
L 721.995931 459.677647 
L 722.160732 459.712365 
L 722.325534 459.368291 
L 722.655137 457.551239 
L 722.984741 454.258947 
L 723.479145 446.692999 
L 724.138352 432.219508 
L 724.96236 408.639227 
L 727.928789 317.072736 
L 728.587996 304.814567 
L 729.082401 299.189065 
L 729.412004 297.284389 
L 729.576806 296.902286 
L 729.741607 296.903549 
L 729.906409 297.288331 
L 730.236012 299.200049 
L 730.565615 302.602731 
L 731.06002 310.357447 
L 731.719227 325.107377 
L 732.543235 349.026727 
L 735.344863 437.037723 
L 736.004069 450.277812 
L 736.498474 456.688652 
L 736.828077 459.119962 
L 737.157681 460.017565 
L 737.322482 459.884285 
L 737.487284 459.36293 
L 737.816887 457.166996 
L 738.311292 451.079047 
L 738.805697 441.875584 
L 739.464903 425.447256 
L 740.453713 394.524698 
L 742.596134 325.49521 
L 743.255341 310.318468 
L 743.749746 302.270666 
L 744.244151 297.481773 
L 744.573754 296.209644 
L 744.738555 296.162171 
L 744.903357 296.508255 
L 745.23296 298.373262 
L 745.562564 301.770261 
L 746.056968 309.59077 
L 746.716175 324.551772 
L 747.540183 348.878527 
L 750.341811 438.06054 
L 751.001017 451.230415 
L 751.495422 457.46291 
L 751.825025 459.716086 
L 751.989827 460.252417 
L 752.154629 460.390892 
L 752.31943 460.13065 
L 752.649034 458.420234 
L 752.978637 455.152807 
L 753.473042 447.475603 
L 754.132248 432.606238 
L 754.956256 408.240909 
L 757.922686 314.401352 
L 758.581892 302.389564 
L 759.076297 297.201867 
L 759.4059 295.705987 
L 759.570702 295.561274 
L 759.735504 295.820572 
L 760.065107 297.544928 
L 760.39471 300.846858 
L 760.889115 308.611445 
L 761.548321 323.652146 
L 762.37233 348.284196 
L 765.173957 438.846031 
L 765.833164 452.08964 
L 766.327569 458.262323 
L 766.657172 460.418614 
L 766.821974 460.889651 
L 766.986775 460.951927 
L 767.151577 460.604945 
L 767.48118 458.691334 
L 767.810783 455.185144 
L 768.305188 447.096562 
L 768.964395 431.619617 
L 769.788403 406.501743 
L 772.590031 315.825613 
L 773.249237 303.021906 
L 773.743642 297.28628 
L 774.073245 295.463927 
L 774.238047 295.170459 
L 774.402848 295.291721 
L 774.56765 295.827321 
L 774.897253 298.129627 
L 775.391658 304.562642 
L 775.886063 314.307686 
L 776.54527 331.686567 
L 777.534079 364.234141 
L 779.511699 430.743336 
L 780.170905 446.79854 
L 780.66531 455.308882 
L 781.159715 460.347492 
L 781.489318 461.656127 
L 781.65412 461.681717 
L 781.818922 461.287019 
L 782.148525 459.246054 
L 782.478128 455.572849 
L 782.972533 447.170108 
L 783.63174 431.190376 
L 784.620549 399.721572 
L 786.927772 322.147844 
L 787.586979 307.032457 
L 788.081384 299.426313 
L 788.410987 296.342114 
L 788.74059 294.927126 
L 788.905392 294.856484 
L 789.070193 295.211911 
L 789.399797 297.192463 
L 789.7294 300.830215 
L 790.223805 309.226791 
L 790.883011 325.280624 
L 791.707019 351.26671 
L 794.343845 439.523834 
L 795.003052 453.340602 
L 795.497457 459.744311 
L 795.82706 461.94609 
L 795.991862 462.405942 
L 796.156663 462.434265 
L 796.321465 462.030702 
L 796.651068 459.9376 
L 796.980671 456.168044 
L 797.475076 447.545698 
L 798.134283 431.162217 
L 799.123093 398.975342 
L 801.265514 325.011594 
L 801.92472 308.771568 
L 802.419125 300.3062 
L 802.91353 295.483062 
L 803.243133 294.412352 
L 803.407935 294.53281 
L 803.572737 295.090703 
L 803.90234 297.505831 
L 804.396745 304.269355 
L 804.89115 314.513114 
L 805.550356 332.745336 
L 806.703967 372.76865 
L 808.351984 429.976514 
L 809.175992 450.397451 
L 809.670397 458.311459 
L 810 461.521228 
L 810.329603 462.992236 
L 810.494405 463.064028 
L 810.659207 462.691754 
L 810.98881 460.62422 
L 811.318413 456.831221 
L 811.812818 448.086527 
L 812.472024 431.40034 
L 813.460834 398.573816 
L 815.603255 323.547045 
L 816.262462 307.345121 
L 816.756867 299.064994 
L 817.251272 294.561873 
L 817.416073 293.943656 
L 817.580875 293.774667 
L 817.745677 294.056034 
L 818.07528 295.962386 
L 818.404883 299.624046 
L 818.899288 308.231563 
L 819.558494 324.848306 
L 820.382503 351.838509 
L 822.854527 438.094943 
L 823.513733 453.06538 
L 824.008138 460.18324 
L 824.337742 462.761114 
L 824.502543 463.374817 
L 824.667345 463.532823 
L 824.832146 463.234026 
L 825.16175 461.273858 
L 825.491353 457.534345 
L 825.985758 448.770211 
L 826.644964 431.888743 
L 827.633774 398.507383 
L 829.776195 322.292455 
L 830.435402 306.029176 
L 830.929807 297.850893 
L 831.25941 294.553039 
L 831.589013 293.069631 
L 831.753815 293.02054 
L 831.918616 293.434701 
L 832.24822 295.642234 
L 832.577823 299.646216 
L 833.072228 308.824105 
L 833.731434 326.248982 
L 834.720244 360.29692 
L 836.697864 431.746717 
L 837.35707 448.928785 
L 837.851475 457.855222 
L 838.34588 462.877017 
L 838.675483 463.921953 
L 838.840285 463.740318 
L 839.005086 463.089387 
L 839.33469 460.3954 
L 839.829095 452.999762 
L 840.323499 441.911031 
L 840.982706 422.339092 
L 842.136317 379.96152 
L 843.619532 326.306899 
L 844.278739 308.484623 
L 844.773143 299.061955 
L 845.267548 293.562397 
L 845.597152 292.222208 
L 845.761953 292.265782 
L 845.926755 292.786039 
L 846.256358 295.243454 
L 846.585961 299.541989 
L 847.080366 309.226818 
L 847.739573 327.393285 
L 848.728383 362.49092 
L 850.706002 434.587567 
L 851.365209 451.303822 
L 851.859613 459.641425 
L 852.189217 462.94585 
L 852.51882 464.352326 
L 852.683622 464.33161 
L 852.848423 463.827137 
L 853.178026 461.379823 
L 853.50763 457.063063 
L 854.002035 447.300947 
L 854.661241 428.953095 
L 855.650051 393.486917 
L 857.462869 325.901104 
L 858.122075 307.774357 
L 858.61648 298.247759 
L 859.110885 292.770095 
L 859.440488 291.517713 
L 859.60529 291.626955 
L 859.770092 292.226971 
L 860.099695 294.884076 
L 860.5941 302.383251 
L 861.088505 313.74965 
L 861.747711 333.904943 
L 862.901322 377.561143 
L 864.384537 432.314631 
L 865.043744 450.104048 
L 865.538149 459.230979 
L 866.032553 464.199041 
L 866.197355 464.879014 
L 866.362157 465.061645 
L 866.526958 464.745602 
L 866.856562 462.62646 
L 867.186165 458.567931 
L 867.68057 449.054453 
L 868.339776 430.779656 
L 869.328586 394.943929 
L 871.306205 320.833488 
L 871.965412 303.783138 
L 872.459817 295.412654 
L 872.78942 292.20095 
L 873.119023 290.980216 
L 873.283825 291.127908 
L 873.448627 291.781229 
L 873.77823 294.587923 
L 874.272635 302.409158 
L 874.76704 314.191914 
L 875.591048 340.902036 
L 878.557477 448.670051 
L 879.051882 458.692431 
L 879.546287 464.498231 
L 879.87589 465.862111 
L 880.040692 465.774721 
L 880.205493 465.173728 
L 880.535097 462.44686 
L 880.8647 457.74317 
L 881.359105 447.229962 
L 882.018311 427.663529 
L 883.007121 390.30309 
L 884.655137 326.486363 
L 885.314344 307.447588 
L 885.808749 297.459891 
L 886.303154 291.767654 
L 886.632757 290.522894 
L 886.797558 290.682196 
L 886.96236 291.362839 
L 887.291963 294.270234 
L 887.786368 302.34946 
L 888.280773 314.497373 
L 889.104781 341.959492 
L 892.071211 450.973771 
L 892.565615 460.622645 
L 892.895219 464.628169 
L 893.224822 466.570303 
L 893.389624 466.750281 
L 893.554425 466.39994 
L 893.884028 464.118621 
L 894.213632 459.778613 
L 894.708037 449.644403 
L 895.367243 430.263945 
L 896.356053 392.563336 
L 898.168871 321.783024 
L 898.828077 303.687224 
L 899.322482 294.765959 
L 899.652085 291.328861 
L 899.981689 290.007735 
L 900.14649 290.15359 
L 900.311292 290.837433 
L 900.640895 293.800583 
L 901.1353 302.080099 
L 901.629705 314.548707 
L 902.453713 342.719387 
L 905.255341 448.995542 
L 905.749746 459.71959 
L 906.244151 465.984628 
L 906.573754 467.498454 
L 906.738555 467.436535 
L 906.903357 466.827642 
L 907.23296 463.985874 
L 907.562564 459.040295 
L 908.056968 447.951329 
L 908.716175 427.314875 
L 909.704985 388.106772 
L 911.353001 322.474527 
L 912.012208 303.714289 
L 912.506612 294.403607 
L 912.836216 290.778558 
L 913.165819 289.335105 
L 913.330621 289.445741 
L 913.495422 290.112004 
L 913.825025 293.092791 
L 914.31943 301.525392 
L 914.813835 314.280754 
L 915.637843 343.133124 
L 918.439471 450.853681 
L 918.933876 461.303294 
L 919.428281 467.090959 
L 919.757884 468.181669 
L 919.922686 467.879956 
L 920.252289 465.589958 
L 920.581892 461.102638 
L 921.076297 450.507329 
L 921.735504 430.150669 
L 922.724313 390.611293 
L 924.37233 323.221687 
L 925.031536 303.720398 
L 925.525941 293.958709 
L 925.855544 290.105632 
L 926.185148 288.502194 
L 926.349949 288.56007 
L 926.514751 289.192242 
L 926.844354 292.161169 
L 927.173957 297.336137 
L 927.668362 308.937219 
L 928.327569 330.484387 
L 929.48118 378.41138 
L 930.799593 432.430255 
L 931.4588 452.514179 
L 931.953204 462.698035 
L 932.282808 466.807042 
L 932.612411 468.636291 
L 932.777213 468.677871 
L 932.942014 468.135244 
L 933.271617 465.31349 
L 933.601221 460.240651 
L 934.095626 448.705874 
L 934.754832 427.092389 
L 935.743642 386.027181 
L 937.226857 324.068645 
L 937.886063 303.76433 
L 938.380468 293.502094 
L 938.710071 289.38938 
L 939.039674 287.597036 
L 939.204476 287.589052 
L 939.369278 288.175095 
L 939.698881 291.111644 
L 940.028484 296.332977 
L 940.522889 308.140754 
L 941.182096 330.171249 
L 942.335707 379.198603 
L 943.65412 434.066139 
L 944.313327 454.127493 
L 944.807731 464.043625 
L 945.137335 467.852893 
L 945.466938 469.290614 
L 945.63174 469.104652 
L 945.796541 468.315189 
L 946.126144 464.948921 
L 946.620549 455.621228 
L 947.279756 436.121098 
L 948.103764 403.393156 
L 950.246185 313.657766 
L 950.905392 296.196724 
L 951.399797 288.740377 
L 951.7294 286.738545 
L 951.894201 286.655862 
L 952.059003 287.188039 
L 952.388606 290.080317 
L 952.71821 295.341167 
L 953.212614 307.354858 
L 953.871821 329.883266 
L 955.025432 380.059924 
L 956.343845 435.813699 
L 957.003052 455.845641 
L 957.497457 465.47539 
L 957.82706 468.966632 
L 957.991862 469.790649 
L 958.156663 469.990769 
L 958.321465 469.565165 
L 958.651068 466.850766 
L 958.980671 461.717657 
L 959.475076 449.798232 
L 960.134283 427.221556 
L 961.123093 384.222242 
L 962.606307 320.194249 
L 963.265514 299.956271 
L 963.759919 290.272679 
L 964.089522 286.800859 
L 964.254323 286.003685 
L 964.419125 285.841758 
L 964.583927 286.316683 
L 964.91353 289.161554 
L 965.243133 294.463689 
L 965.737538 306.694554 
L 966.396745 329.748311 
L 967.550356 381.130672 
L 968.868769 437.785068 
L 969.527976 457.756565 
L 970.02238 467.059014 
L 970.351984 470.197839 
L 970.516785 470.807591 
L 970.681587 470.769742 
L 970.846389 470.084067 
L 971.175992 466.790992 
L 971.505595 461.016605 
L 972 448.066011 
L 972.659207 424.119257 
L 973.812818 371.730135 
L 974.966429 321.372571 
L 975.625636 300.243508 
L 976.120041 290.021736 
L 976.449644 286.283238 
L 976.614446 285.384677 
L 976.779247 285.143972 
L 976.944049 285.563365 
L 977.273652 288.368024 
L 977.603255 293.723409 
L 978.09766 306.196932 
L 978.756867 329.818456 
L 979.910478 382.470473 
L 981.06409 433.850456 
L 981.723296 455.691914 
L 982.217701 466.422949 
L 982.547304 470.465585 
L 982.876907 471.868726 
L 983.041709 471.563615 
L 983.371312 468.948391 
L 983.700916 463.727003 
L 984.19532 451.347654 
L 984.854527 427.663764 
L 986.008138 374.533582 
L 987.16175 322.580694 
L 987.820956 300.547857 
L 988.315361 289.788716 
L 988.644964 285.790563 
L 988.809766 284.796223 
L 988.974568 284.483759 
L 989.139369 284.856024 
L 989.468973 287.641217 
L 989.798576 293.075225 
L 990.292981 305.83568 
L 990.952187 330.087407 
L 992.105799 384.084751 
L 993.25941 436.27962 
L 993.918616 458.028554 
L 994.413021 468.362382 
L 994.742625 471.984501 
L 994.907426 472.766338 
L 995.072228 472.851877 
L 995.23703 472.23992 
L 995.566633 468.944486 
L 995.896236 462.972951 
L 996.390641 449.395459 
L 997.049847 424.139169 
L 998.36826 360.974817 
L 999.35707 317.177798 
L 1000.016277 296.327295 
L 1000.510682 286.973579 
L 1000.840285 284.122574 
L 1001.005086 283.754047 
L 1001.169888 284.096437 
L 1001.499491 286.900824 
L 1001.829095 292.456536 
L 1002.323499 305.57301 
L 1002.982706 330.543964 
L 1004.136317 385.979354 
L 1005.289929 438.927124 
L 1005.949135 460.465402 
L 1006.44354 470.279475 
L 1006.773143 473.387562 
L 1006.937945 473.866029 
L 1007.102747 473.619939 
L 1007.267548 472.650538 
L 1007.597152 468.574286 
L 1008.091556 457.37955 
L 1008.750763 434.237893 
L 1009.739573 387.910115 
L 1011.222787 317.678454 
L 1011.881994 296.02051 
L 1012.376399 286.266532 
L 1012.706002 283.274769 
L 1012.870804 282.876888 
L 1013.035605 283.217855 
L 1013.365209 286.102701 
L 1013.694812 291.845427 
L 1014.189217 305.417913 
L 1014.848423 331.229742 
L 1016.002035 388.215465 
L 1017.155646 441.81662 
L 1017.814852 462.983166 
L 1018.309257 472.11699 
L 1018.638861 474.591438 
L 1018.803662 474.704553 
L 1018.968464 474.064196 
L 1019.298067 470.546259 
L 1019.62767 464.142363 
L 1020.122075 449.576483 
L 1020.781282 422.567612 
L 1023.582909 295.352825 
L 1024.077314 285.287611 
L 1024.406918 282.228106 
L 1024.571719 281.840847 
L 1024.736521 282.222301 
L 1025.066124 285.275878 
L 1025.395727 291.297229 
L 1025.890132 305.46166 
L 1026.549339 332.272405 
L 1027.867752 399.485704 
L 1028.856562 445.037806 
L 1029.515768 465.616618 
L 1030.010173 473.863195 
L 1030.339776 475.553397 
L 1030.504578 475.224223 
L 1030.669379 474.11262 
L 1030.998983 469.581312 
L 1031.493388 457.323098 
L 1032.152594 432.254684 
L 1033.141404 382.825781 
L 1034.459817 317.301886 
L 1035.119023 294.297333 
L 1035.613428 284.049981 
L 1035.943032 281.025521 
L 1036.107833 280.704264 
L 1036.272635 281.183674 
L 1036.602238 284.525213 
L 1036.931841 290.946508 
L 1037.426246 305.87828 
L 1038.085453 333.883001 
L 1040.722279 459.925066 
L 1041.216684 471.574317 
L 1041.546287 475.522331 
L 1041.711089 476.289563 
L 1041.87589 476.240429 
L 1042.040692 475.374514 
L 1042.370295 471.224698 
L 1042.699898 463.971878 
L 1043.194303 447.816607 
L 1043.85351 418.393068 
L 1046.325534 297.757938 
L 1046.819939 285.249366 
L 1047.149542 280.767606 
L 1047.314344 279.753035 
L 1047.479145 279.570851 
L 1047.643947 280.223417 
L 1047.97355 284.006957 
L 1048.303154 290.982127 
L 1048.797558 306.898084 
L 1049.456765 336.325944 
L 1051.928789 458.690976 
L 1052.423194 471.451383 
L 1052.752798 476.023365 
L 1052.917599 477.057115 
L 1053.082401 477.240618 
L 1053.247202 476.571411 
L 1053.576806 472.701667 
L 1053.906409 465.573979 
L 1054.400814 449.324819 
L 1055.06002 419.33033 
L 1057.532045 295.939682 
L 1058.02645 283.538358 
L 1058.356053 279.327439 
L 1058.520855 278.507551 
L 1058.685656 278.55798 
L 1058.850458 279.479201 
L 1059.180061 283.897864 
L 1059.509664 291.616252 
L 1060.004069 308.775326 
L 1060.663276 339.882626 
L 1062.970498 457.94362 
L 1063.464903 471.664007 
L 1063.794507 476.740533 
L 1063.959308 477.976351 
L 1064.12411 478.325398 
L 1064.288911 477.783622 
L 1064.618515 474.050962 
L 1064.948118 466.903498 
L 1065.442523 450.351325 
L 1066.101729 419.553327 
L 1068.408952 299.202783 
L 1068.903357 284.789325 
L 1069.23296 279.306079 
L 1069.562564 277.380423 
L 1069.727365 277.781003 
L 1069.892167 279.089791 
L 1070.22177 284.380534 
L 1070.716175 298.59659 
L 1071.375381 327.368561 
L 1072.528993 392.382108 
L 1073.517803 444.50422 
L 1074.177009 468.325246 
L 1074.671414 477.762626 
L 1074.836216 479.113418 
L 1075.001017 479.537396 
L 1075.165819 479.029632 
L 1075.495422 475.241984 
L 1075.825025 467.881559 
L 1076.31943 450.751312 
L 1076.978637 418.852638 
L 1079.28586 296.174445 
L 1079.780264 282.354707 
L 1080.109868 277.535827 
L 1080.274669 276.527955 
L 1080.439471 276.471438 
L 1080.604273 277.36793 
L 1080.933876 281.981987 
L 1081.263479 290.206353 
L 1081.757884 308.622244 
L 1082.417091 342.010386 
L 1084.559512 458.593493 
L 1085.053917 473.566266 
L 1085.38352 479.117831 
L 1085.548321 480.469286 
L 1085.713123 480.849532 
L 1085.877925 480.253818 
L 1086.207528 476.161959 
L 1086.537131 468.340559 
L 1087.031536 450.285535 
L 1087.690743 416.926781 
L 1089.833164 298.35255 
L 1090.327569 282.94999 
L 1090.657172 277.201871 
L 1090.821974 275.784208 
L 1090.986775 275.36056 
L 1091.151577 275.936267 
L 1091.48118 280.058688 
L 1091.810783 288.001464 
L 1092.305188 306.386973 
L 1092.964395 340.372977 
L 1095.106816 460.244084 
L 1095.601221 475.366859 
L 1095.930824 480.775579 
L 1096.095626 481.980395 
L 1096.260427 482.16471 
L 1096.425229 481.325451 
L 1096.754832 476.614419 
L 1097.084435 468.023381 
L 1097.57884 448.62315 
L 1098.402848 403.474105 
L 1100.050865 307.015865 
L 1100.54527 287.771505 
L 1101.039674 276.633107 
L 1101.369278 274.253545 
L 1101.534079 274.632831 
L 1101.698881 276.058393 
L 1102.028484 281.985903 
L 1102.522889 298.06519 
L 1103.182096 330.525995 
L 1105.65412 468.784877 
L 1106.148525 480.710134 
L 1106.478128 483.515393 
L 1106.64293 483.311334 
L 1106.807731 482.033401 
L 1107.137335 476.313654 
L 1107.63174 460.322645 
L 1108.290946 427.600104 
L 1110.76297 287.4528 
L 1111.257375 275.608989 
L 1111.586979 273.004043 
L 1111.75178 273.350772 
L 1111.916582 274.797953 
L 1112.246185 280.927663 
L 1112.74059 297.669485 
L 1113.399797 331.488539 
L 1115.707019 466.656001 
L 1116.201424 480.58748 
L 1116.531027 484.550672 
L 1116.695829 484.849855 
L 1116.860631 484.017091 
L 1117.190234 478.996921 
L 1117.519837 469.691506 
L 1118.014242 448.587174 
L 1118.83825 399.695656 
L 1120.321465 306.941751 
L 1120.81587 286.010741 
L 1121.310275 273.994106 
L 1121.639878 271.568991 
L 1121.80468 272.094949 
L 1121.969481 273.778684 
L 1122.299084 280.54029 
L 1122.793489 298.550934 
L 1123.452696 334.3594 
L 1125.595117 465.27637 
L 1126.089522 480.76542 
L 1126.419125 485.548482 
L 1126.583927 486.173885 
L 1126.748728 485.605915 
L 1127.078332 480.921169 
L 1127.407935 471.687835 
L 1127.90234 450.227774 
L 1128.561546 410.884921 
L 1130.374364 296.367848 
L 1130.868769 278.313175 
L 1131.198372 271.790177 
L 1131.363174 270.317386 
L 1131.527976 270.066172 
L 1131.692777 271.041194 
L 1132.02238 276.619249 
L 1132.351984 286.813499 
L 1132.846389 309.726553 
L 1133.670397 362.093946 
L 1134.98881 449.054868 
L 1135.483215 471.701949 
L 1135.97762 484.798274 
L 1136.307223 487.488877 
L 1136.472024 486.948471 
L 1136.636826 485.151755 
L 1136.966429 477.878993 
L 1137.460834 458.476484 
L 1138.120041 420.061986 
L 1140.09766 291.849611 
L 1140.592065 274.682184 
L 1140.921668 269.201776 
L 1141.08647 268.375119 
L 1141.251272 268.844905 
L 1141.416073 270.607633 
L 1141.745677 277.921632 
L 1142.240081 297.637296 
L 1142.899288 336.808646 
L 1144.876907 466.616879 
L 1145.371312 483.3856 
L 1145.700916 488.370651 
L 1145.865717 488.885707 
L 1146.030519 488.065899 
L 1146.360122 482.468421 
L 1146.689725 471.830612 
L 1147.18413 447.572431 
L 1148.008138 391.943121 
L 1149.326551 301.458453 
L 1149.820956 279.263053 
L 1150.15056 270.359885 
L 1150.480163 266.735268 
L 1150.644964 266.97413 
L 1150.809766 268.585235 
L 1151.139369 275.837081 
L 1151.633774 296.030892 
L 1152.292981 336.6594 
L 1154.105799 462.34935 
L 1154.600203 482.13871 
L 1154.929807 488.957083 
L 1155.094608 490.293538 
L 1155.25941 490.216593 
L 1155.424212 488.724722 
L 1155.753815 481.579302 
L 1156.24822 461.22448 
L 1156.907426 419.900509 
L 1158.720244 292.196368 
L 1159.214649 272.548763 
L 1159.544252 266.074532 
L 1159.709054 264.983403 
L 1159.873856 265.35137 
L 1160.038657 267.176325 
L 1160.36826 275.094773 
L 1160.862665 296.781491 
L 1161.521872 339.872022 
L 1163.33469 468.368369 
L 1163.829095 486.589204 
L 1164.158698 491.746223 
L 1164.323499 492.089311 
L 1164.488301 490.925745 
L 1164.817904 484.148775 
L 1165.147508 471.751364 
L 1165.641913 444.081729 
L 1166.465921 382.400457 
L 1167.619532 297.976907 
L 1168.113937 274.691435 
L 1168.44354 265.932518 
L 1168.608342 263.796309 
L 1168.773143 263.204837 
L 1168.937945 264.169125 
L 1169.267548 270.70386 
L 1169.597152 283.070635 
L 1170.091556 311.058756 
L 1170.915565 373.918831 
L 1172.069176 459.835553 
L 1172.563581 483.180216 
L 1172.893184 491.701413 
L 1173.057986 493.633721 
L 1173.222787 493.966734 
L 1173.387589 492.692644 
L 1173.717192 485.403321 
L 1174.046796 472.145152 
L 1174.5412 442.709988 
L 1175.53001 364.047303 
L 1176.354018 301.720388 
L 1176.848423 275.716102 
L 1177.178026 265.392253 
L 1177.50763 261.435958 
L 1177.672431 261.938704 
L 1177.837233 264.098349 
L 1178.166836 273.255788 
L 1178.661241 297.993164 
L 1179.320448 346.326908 
L 1180.803662 463.121273 
L 1181.298067 486.543238 
L 1181.62767 494.511972 
L 1181.792472 495.983981 
L 1181.957274 495.739434 
L 1182.122075 493.778234 
L 1182.451679 484.830756 
L 1182.946083 459.951772 
L 1183.60529 410.754096 
L 1185.088505 291.765987 
L 1185.582909 268.368365 
L 1185.912513 260.748423 
L 1186.077314 259.550918 
L 1186.242116 260.133024 
L 1186.406918 262.490038 
L 1186.736521 272.376954 
L 1187.230926 298.897722 
L 1187.890132 350.232484 
L 1189.208545 459.872932 
L 1189.70295 486.219781 
L 1190.032553 495.790261 
L 1190.197355 497.907312 
L 1190.362157 498.187419 
L 1190.526958 496.62202 
L 1190.856562 488.062493 
L 1191.186165 472.722818 
L 1191.68057 439.107804 
L 1193.822991 270.891878 
L 1194.152594 260.517959 
L 1194.317396 258.083417 
L 1194.482197 257.550952 
L 1194.646999 258.933639 
L 1194.976602 267.345275 
L 1195.306205 282.822153 
L 1195.80061 317.099724 
L 1197.943032 488.277273 
L 1198.272635 498.225813 
L 1198.437436 500.32268 
L 1198.602238 500.438808 
L 1198.76704 498.567336 
L 1199.096643 488.995991 
L 1199.591048 461.395912 
L 1200.250254 406.515093 
L 1201.568667 290.313829 
L 1202.063072 264.347721 
L 1202.392675 256.284749 
L 1202.557477 255.292922 
L 1202.722279 256.368291 
L 1203.051882 264.635576 
L 1203.381485 280.574833 
L 1203.87589 316.484173 
L 1205.85351 485.935613 
L 1206.183113 498.617312 
L 1206.512716 503.085503 
L 1206.677518 502.106421 
L 1207.007121 493.777177 
L 1207.336724 477.45552 
L 1207.831129 440.503603 
L 1209.808749 268.209093 
L 1210.138352 256.246041 
L 1210.303154 253.471855 
L 1210.467955 252.922848 
L 1210.632757 254.615209 
L 1210.96236 264.589079 
L 1211.291963 282.732149 
L 1211.786368 322.384902 
L 1213.599186 486.790189 
L 1213.928789 500.672576 
L 1214.258393 505.669727 
L 1214.423194 504.678691 
L 1214.587996 501.361912 
L 1214.917599 488.010312 
L 1215.412004 453.230066 
L 1216.236012 371.217416 
L 1217.06002 291.909537 
L 1217.554425 261.209194 
L 1217.884028 251.451419 
L 1218.04883 250.146663 
L 1218.213632 251.282976 
L 1218.543235 260.776595 
L 1218.872838 279.270229 
L 1219.367243 320.754177 
L 1221.180061 492.156246 
L 1221.509664 505.123609 
L 1221.674466 507.950659 
L 1221.839268 508.238952 
L 1222.004069 505.974464 
L 1222.333672 493.981696 
L 1222.828077 459.33541 
L 1223.652085 373.614891 
L 1224.476094 289.546669 
L 1224.970498 257.54829 
L 1225.300102 248.029532 
L 1225.464903 247.204036 
L 1225.629705 249.053627 
L 1225.959308 260.609634 
L 1226.288911 281.827651 
L 1226.948118 345.898705 
L 1228.266531 482.77926 
L 1228.596134 501.962491 
L 1228.925738 510.87588 
L 1229.090539 511.188282 
L 1229.255341 508.695929 
L 1229.584944 495.525239 
L 1230.079349 457.659718 
L 1230.903357 365.495442 
L 1231.727365 279.175776 
L 1232.22177 249.827113 
L 1232.551373 243.858824 
L 1232.716175 245.27385 
L 1233.045778 256.802776 
L 1233.375381 279.055281 
L 1233.869786 328.20938 
L 1235.353001 490.381163 
L 1235.682604 508.353286 
L 1236.012208 514.65126 
L 1236.177009 513.170872 
L 1236.506612 501.056973 
L 1236.836216 477.691913 
L 1237.495422 406.2698 
L 1238.649034 273.551384 
L 1238.978637 251.285082 
L 1239.30824 240.853957 
L 1239.473042 240.462054 
L 1239.637843 243.34301 
L 1239.967447 258.628918 
L 1240.461851 302.300486 
L 1242.274669 504.992466 
L 1242.604273 517.169539 
L 1242.769074 518.191143 
L 1242.933876 515.751915 
L 1243.263479 500.754303 
L 1243.757884 456.116649 
L 1245.570702 247.922708 
L 1245.900305 236.76066 
L 1246.065107 236.583942 
L 1246.229908 240.070008 
L 1246.559512 257.644829 
L 1247.053917 306.712591 
L 1248.701933 506.678255 
L 1249.031536 520.868914 
L 1249.196338 522.291729 
L 1249.361139 519.820653 
L 1249.690743 503.488361 
L 1250.185148 454.273903 
L 1251.833164 247.005003 
L 1252.162767 232.878667 
L 1252.327569 231.877563 
L 1252.49237 235.021806 
L 1252.821974 253.36307 
L 1253.316378 306.638874 
L 1254.799593 505.404076 
L 1255.129196 523.957395 
L 1255.293998 526.892556 
L 1255.4588 525.405697 
L 1255.623601 519.515147 
L 1255.953204 495.252708 
L 1256.447609 433.597632 
L 1257.766022 249.203097 
L 1258.095626 229.694533 
L 1258.260427 226.735884 
L 1258.425229 228.521521 
L 1258.590031 235.022038 
L 1258.919634 261.308869 
L 1259.414039 327.232076 
L 1260.56765 500.360234 
L 1260.897253 525.702505 
L 1261.062055 531.318344 
L 1261.226857 531.8901 
L 1261.391658 527.359413 
L 1261.721261 503.600997 
L 1262.215666 437.815755 
L 1263.369278 255.308555 
L 1263.698881 228.026642 
L 1263.863683 221.971897 
L 1264.028484 221.360943 
L 1264.193286 226.256913 
L 1264.522889 251.892721 
L 1265.017294 322.443332 
L 1266.170905 510.582777 
L 1266.500509 534.83138 
L 1266.66531 538.48467 
L 1266.830112 536.146836 
L 1266.994914 527.850239 
L 1267.324517 494.71865 
L 1267.818922 413.803481 
L 1268.807731 244.27841 
L 1269.137335 218.092604 
L 1269.302136 214.237623 
L 1269.466938 216.90099 
L 1269.63174 226.035838 
L 1269.961343 262.260121 
L 1270.455748 349.660099 
L 1271.279756 503.255401 
L 1271.609359 537.421392 
L 1271.774161 544.859256 
L 1271.938962 545.227034 
L 1272.103764 538.381119 
L 1272.433367 504.263542 
L 1272.927772 414.608816 
L 1273.75178 250.64875 
L 1274.081384 214.388159 
L 1274.246185 206.901444 
L 1274.410987 207.299181 
L 1274.575788 215.701146 
L 1274.905392 254.718121 
L 1275.399797 353.667763 
L 1276.223805 522.26426 
L 1276.553408 552.263815 
L 1276.71821 554.692957 
L 1276.883011 548.278725 
L 1277.212614 510.251232 
L 1277.707019 405.70108 
L 1278.531027 226.182696 
L 1278.860631 197.344513 
L 1279.025432 197.498694 
L 1279.190234 207.467655 
L 1279.519837 254.397215 
L 1280.014242 374.103332 
L 1280.673449 528.943774 
L 1281.003052 564.73753 
L 1281.167854 566.069064 
L 1281.332655 555.567335 
L 1281.662258 503.448205 
L 1282.321465 324.450757 
L 1282.81587 210.424356 
L 1283.145473 183.495853 
L 1283.310275 188.549701 
L 1283.475076 206.857464 
L 1283.80468 278.886739 
L 1284.793489 556.805614 
L 1284.958291 576.496374 
L 1285.123093 581.365229 
L 1285.287894 570.881011 
L 1285.617497 506.560814 
L 1286.771109 171.05575 
L 1286.93591 165.123408 
L 1287.100712 178.801019 
L 1287.430315 255.215545 
L 1288.419125 590.658529 
L 1288.583927 599.566823 
L 1288.748728 588.379202 
L 1289.078332 511.968155 
L 1290.067141 150.311621 
L 1290.231943 151.695207 
L 1290.396745 174.245804 
L 1290.726348 305.344735 
L 1291.220753 579.237933 
L 1291.385554 614.869026 
L 1291.550356 619.232691 
L 1291.715158 599.987962 
L 1291.879959 553.593647 
L 1292.209563 346.845441 
L 1292.539166 118.508082 
L 1292.703967 91.467448 
L 1292.868769 133.502912 
L 1293.363174 427.033491 
L 1293.692777 672.740791 
L 1293.857579 720 
L 1294.02238 630.706718 
L 1294.516785 0 
L 1294.681587 65.201101 
L 1295.175992 659.133817 
L 1295.340793 567.248592 
L 1295.670397 227.669445 
L 1295.835198 227.347185 
L 1296 339.621174 
L 1296 339.621174 
" clip-path="url(#pcc9ea54108)" style="fill: none; stroke: #4c4cff; stroke-width: 3; stroke-linecap: square"/>
   </g>
  </g>
 </g>
 <defs>
  <clipPath id="pcc9ea54108">
   <rect x="0" y="0" width="1296" height="720"/>
  </clipPath>
 </defs>
</svg>
