<?xml version="1.0" encoding="utf-8" standalone="no"?>
<!DOCTYPE svg PUBLIC "-//W3C//DTD SVG 1.1//EN"
  "http://www.w3.org/Graphics/SVG/1.1/DTD/svg11.dtd">
<svg xmlns:xlink="http://www.w3.org/1999/xlink" width="371.52pt" height="280.512pt" viewBox="0 0 371.52 280.512" xmlns="http://www.w3.org/2000/svg" version="1.1">
 <metadata>
  <rdf:RDF xmlns:dc="http://purl.org/dc/elements/1.1/" xmlns:cc="http://creativecommons.org/ns#" xmlns:rdf="http://www.w3.org/1999/02/22-rdf-syntax-ns#">
   <cc:Work>
    <dc:type rdf:resource="http://purl.org/dc/dcmitype/StillImage"/>
    <dc:date>2025-06-16T19:21:04.399162</dc:date>
    <dc:format>image/svg+xml</dc:format>
    <dc:creator>
     <cc:Agent>
      <dc:title>Matplotlib v3.9.2, https://matplotlib.org/</dc:title>
     </cc:Agent>
    </dc:creator>
   </cc:Work>
  </rdf:RDF>
 </metadata>
 <defs>
  <style type="text/css">*{stroke-linejoin: round; stroke-linecap: butt}</style>
 </defs>
 <g id="figure_1">
  <g id="patch_1">
   <path d="M 0 280.512 
L 371.52 280.512 
L 371.52 0 
L 0 0 
L 0 280.512 
z
" style="fill: none"/>
  </g>
  <g id="axes_1">
   <g id="line2d_1">
    <path d="M 7.152379 270.697466 
L 13.104974 269.799968 
L 18.46231 268.770573 
L 23.402964 267.596886 
L 27.986463 266.281845 
L 32.331857 264.803473 
L 36.439148 263.171159 
L 40.367861 261.370895 
L 44.177522 259.378591 
L 47.868131 257.195177 
L 51.439688 254.824755 
L 54.951719 252.228298 
L 58.404224 249.401959 
L 61.85673 246.287821 
L 65.309235 242.870683 
L 68.76174 239.136639 
L 72.214245 235.073441 
L 75.726277 230.591941 
L 79.297834 225.665919 
L 82.928917 220.271284 
L 86.619526 214.387092 
L 90.429187 207.89195 
L 94.417426 200.64366 
L 98.584242 192.599634 
L 102.989163 183.605078 
L 107.751239 173.368048 
L 113.108575 161.308813 
L 119.596904 146.126487 
L 141.442928 94.507885 
L 146.085953 84.390633 
L 150.133717 76.086157 
L 153.7648 69.131498 
L 157.098254 63.220716 
L 160.134077 58.276577 
L 162.991323 54.038748 
L 165.669991 50.45687 
L 168.170081 47.474079 
L 170.551119 44.971079 
L 172.813105 42.909316 
L 174.95604 41.248274 
L 177.039448 39.91213 
L 179.003804 38.908492 
L 180.908635 38.175864 
L 182.813465 37.682403 
L 184.65877 37.433869 
L 186.504074 37.411927 
L 188.349379 37.616641 
L 190.194683 38.047419 
L 192.099514 38.727896 
L 194.004344 39.645849 
L 195.968701 40.838238 
L 198.052109 42.371282 
L 200.195044 44.230593 
L 202.45703 46.496153 
L 204.838068 49.206699 
L 207.338158 52.398733 
L 209.9573 56.105441 
L 212.75502 60.451985 
L 215.790843 65.589957 
L 219.06477 71.581025 
L 222.636328 78.592916 
L 226.624566 86.930029 
L 231.148539 96.917112 
L 236.684452 109.704035 
L 244.95856 129.447427 
L 256.328017 156.491245 
L 262.399664 170.336353 
L 267.518896 181.472119 
L 272.16192 191.054909 
L 276.507315 199.523428 
L 280.614605 207.050347 
L 284.543318 213.796256 
L 288.352979 219.903857 
L 292.043588 225.409751 
L 295.674671 230.433767 
L 299.246229 235.000436 
L 302.75826 239.136639 
L 306.270291 242.932246 
L 309.782322 246.400165 
L 313.294353 249.555072 
L 316.806385 252.413015 
L 320.377942 255.032435 
L 324.009025 257.417966 
L 327.699634 259.576309 
L 331.509295 261.544862 
L 335.438008 263.322856 
L 339.545299 264.934222 
L 343.831167 266.374503 
L 348.35514 267.658956 
L 353.176742 268.796043 
L 358.415026 269.799968 
L 364.129517 270.665912 
L 364.367621 270.697466 
L 364.367621 270.697466 
" clip-path="url(#p74b88239f1)" style="fill: none; stroke: #4c4cfe; stroke-width: 3; stroke-linecap: square"/>
   </g>
  </g>
 </g>
 <defs>
  <clipPath id="p74b88239f1">
   <rect x="7.2" y="7.2" width="357.12" height="266.112"/>
  </clipPath>
 </defs>
</svg>
