<?xml version="1.0" encoding="UTF-8" standalone="no"?>
<!-- Created with Inkscape (http://www.inkscape.org/) -->

<svg
   width="150mm"
   height="350mm"
   viewBox="0 0 150 350"
   version="1.1"
   id="svg1"
   inkscape:version="1.3 (0e150ed, 2023-07-21)"
   sodipodi:docname="GRB_intro.svg"
   xmlns:inkscape="http://www.inkscape.org/namespaces/inkscape"
   xmlns:sodipodi="http://sodipodi.sourceforge.net/DTD/sodipodi-0.dtd"
   xmlns="http://www.w3.org/2000/svg"
   xmlns:svg="http://www.w3.org/2000/svg">
  <sodipodi:namedview
     id="namedview1"
     pagecolor="#ffffff"
     bordercolor="#000000"
     borderopacity="0.25"
     inkscape:showpageshadow="2"
     inkscape:pageopacity="0.0"
     inkscape:pagecheckerboard="0"
     inkscape:deskcolor="#d1d1d1"
     inkscape:document-units="mm"
     inkscape:zoom="0.49696619"
     inkscape:cx="226.37355"
     inkscape:cy="561.4064"
     inkscape:window-width="2560"
     inkscape:window-height="1387"
     inkscape:window-x="0"
     inkscape:window-y="25"
     inkscape:window-maximized="0"
     inkscape:current-layer="layer1" />
  <defs
     id="defs1">
    <inkscape:path-effect
       effect="bspline"
       id="path-effect3"
       is_visible="true"
       lpeversion="1.3"
       weight="33.333333"
       steps="2"
       helper_size="0"
       apply_no_weight="true"
       apply_with_weight="true"
       only_selected="false"
       uniform="false" />
    <inkscape:path-effect
       effect="bspline"
       id="path-effect2"
       is_visible="true"
       lpeversion="1.3"
       weight="33.333333"
       steps="2"
       helper_size="0"
       apply_no_weight="true"
       apply_with_weight="true"
       only_selected="false"
       uniform="false" />
    <inkscape:path-effect
       effect="bspline"
       id="path-effect1"
       is_visible="true"
       lpeversion="1.3"
       weight="33.333333"
       steps="2"
       helper_size="0"
       apply_no_weight="true"
       apply_with_weight="true"
       only_selected="false"
       uniform="false" />
    <inkscape:path-effect
       effect="bspline"
       id="path-effect18"
       is_visible="true"
       lpeversion="1.3"
       weight="33.333333"
       steps="2"
       helper_size="0"
       apply_no_weight="true"
       apply_with_weight="true"
       only_selected="false"
       uniform="false" />
    <inkscape:path-effect
       effect="bspline"
       id="path-effect18-4"
       is_visible="true"
       lpeversion="1.3"
       weight="33.333333"
       steps="2"
       helper_size="0"
       apply_no_weight="true"
       apply_with_weight="true"
       only_selected="false"
       uniform="false" />
    <inkscape:path-effect
       effect="bspline"
       id="path-effect16-4"
       is_visible="true"
       lpeversion="1.3"
       weight="33.333333"
       steps="2"
       helper_size="0"
       apply_no_weight="true"
       apply_with_weight="true"
       only_selected="false"
       uniform="false" />
    <inkscape:path-effect
       effect="bspline"
       id="path-effect16-4-5"
       is_visible="true"
       lpeversion="1.3"
       weight="33.333333"
       steps="2"
       helper_size="0"
       apply_no_weight="true"
       apply_with_weight="true"
       only_selected="false"
       uniform="false" />
    <inkscape:path-effect
       effect="bspline"
       id="path-effect16-4-5-7"
       is_visible="true"
       lpeversion="1.3"
       weight="33.333333"
       steps="2"
       helper_size="0"
       apply_no_weight="true"
       apply_with_weight="true"
       only_selected="false"
       uniform="false" />
    <inkscape:path-effect
       effect="bspline"
       id="path-effect16-4-5-3"
       is_visible="true"
       lpeversion="1.3"
       weight="33.333333"
       steps="2"
       helper_size="0"
       apply_no_weight="true"
       apply_with_weight="true"
       only_selected="false"
       uniform="false" />
    <inkscape:path-effect
       effect="bspline"
       id="path-effect16-4-5-79"
       is_visible="true"
       lpeversion="1.3"
       weight="33.333333"
       steps="2"
       helper_size="0"
       apply_no_weight="true"
       apply_with_weight="true"
       only_selected="false"
       uniform="false" />
    <inkscape:path-effect
       effect="bspline"
       id="path-effect2-9"
       is_visible="true"
       lpeversion="1.3"
       weight="33.333333"
       steps="2"
       helper_size="0"
       apply_no_weight="true"
       apply_with_weight="true"
       only_selected="false"
       uniform="false" />
    <inkscape:path-effect
       effect="bspline"
       id="path-effect2-8"
       is_visible="true"
       lpeversion="1.3"
       weight="33.333333"
       steps="2"
       helper_size="0"
       apply_no_weight="true"
       apply_with_weight="true"
       only_selected="false"
       uniform="false" />
    <inkscape:path-effect
       effect="bspline"
       id="path-effect1-1"
       is_visible="true"
       lpeversion="1.3"
       weight="33.333333"
       steps="2"
       helper_size="0"
       apply_no_weight="true"
       apply_with_weight="true"
       only_selected="false"
       uniform="false" />
    <inkscape:path-effect
       effect="bspline"
       id="path-effect2-3"
       is_visible="true"
       lpeversion="1.3"
       weight="33.333333"
       steps="2"
       helper_size="0"
       apply_no_weight="true"
       apply_with_weight="true"
       only_selected="false"
       uniform="false" />
    <inkscape:path-effect
       effect="bspline"
       id="path-effect2-8-7"
       is_visible="true"
       lpeversion="1.3"
       weight="33.333333"
       steps="2"
       helper_size="0"
       apply_no_weight="true"
       apply_with_weight="true"
       only_selected="false"
       uniform="false" />
  </defs>
  <g
     inkscape:label="Layer 1"
     inkscape:groupmode="layer"
     id="layer1">
    <g
       id="g1"
       transform="rotate(-5.1031194,-588.92003,-243.54406)">
      <path
         style="opacity:0.6;fill:#ff0000;fill-opacity:1;stroke:#ff0000;stroke-width:1.06;stroke-linecap:butt;stroke-linejoin:round;stroke-miterlimit:3.8;stroke-opacity:1"
         d="m 200.15371,37.041535 c -28.07062,32.155023 -77.44856,92.927875 -72.41148,95.405125 5.03708,2.47726 64.48879,-53.341288 94.15469,-84.075871 C 251.56283,17.636206 251.44176,11.986922 249.76813,7.7509909 248.0945,3.51506 244.89913,0.71955119 239.87536,1.0703496 234.85159,1.421148 228.22433,4.8865123 200.15371,37.041535 Z"
         id="path15-9-1"
         inkscape:path-effect="#path-effect16-4-5"
         inkscape:original-d="M 221.46202,8.4224928 C 172.08309,69.196559 122.70515,129.96941 73.325228,190.74469 132.77931,134.92392 192.23102,79.105374 251.68391,23.285716 c -0.12108,-5.64951 -0.24216,-11.298794 -0.36323,-16.9481912 -3.22618,-2.8224668 -6.42155,-5.61797584 -9.67835,-8.4672234 -6.79074,3.5508459 -13.418,7.0162123 -20.18031,10.5521914 z"
         sodipodi:nodetypes="cccccc"
         transform="matrix(0.24848725,-0.18228812,0.10944272,0.41388111,-5.5780331,182.70166)" />
      <path
         style="opacity:0.6;fill:#ff0000;fill-opacity:1;stroke:#ff0000;stroke-width:1.06;stroke-linecap:butt;stroke-linejoin:round;stroke-miterlimit:3.8;stroke-opacity:1"
         d="m 200.15371,37.041535 c -28.07062,32.155023 -77.44856,92.927875 -72.41148,95.405125 5.03708,2.47726 64.48879,-53.341288 94.15469,-84.075871 C 251.56283,17.636206 251.44176,11.986922 249.76813,7.7509909 248.0945,3.51506 244.89913,0.71955119 239.87536,1.0703496 234.85159,1.421148 228.22433,4.8865123 200.15371,37.041535 Z"
         id="path15-9-1-3"
         inkscape:path-effect="#path-effect16-4-5-79"
         inkscape:original-d="M 221.46202,8.4224928 C 172.08309,69.196559 122.70515,129.96941 73.325228,190.74469 132.77931,134.92392 192.23102,79.105374 251.68391,23.285716 c -0.12108,-5.64951 -0.24216,-11.298794 -0.36323,-16.9481912 -3.22618,-2.8224668 -6.42155,-5.61797584 -9.67835,-8.4672234 -6.79074,3.5508459 -13.418,7.0162123 -20.18031,10.5521914 z"
         sodipodi:nodetypes="cccccc"
         transform="matrix(-0.24848725,0.18228812,-0.10944272,-0.41388111,85.926427,249.96839)" />
      <circle
         style="fill:#000000;fill-opacity:1;stroke:#000000;stroke-width:1.28364;stroke-linecap:butt;stroke-linejoin:round;stroke-miterlimit:3.8;stroke-opacity:1"
         id="path16"
         cx="39.782593"
         cy="216.15828"
         r="4.7261539" />
    </g>
    <path
       style="fill:#aa0000;fill-opacity:0.601363;stroke:#000000;stroke-width:1.065;stroke-miterlimit:3.8"
       d="m 105.73787,51.463264 c -2.49897,-1.483767 -7.496923,-4.451301 -11.870167,-5.232217 -4.373244,-0.780915 -8.12163,0.624731 -10.464429,4.138971 -2.342798,3.51424 -3.279895,9.136821 -5.77891,12.260545 -2.499015,3.123724 -6.559769,3.748455 -9.905855,9.004826 -3.346086,5.25637 -5.977267,15.143771 -4.024903,18.501835 1.952363,3.358065 8.488167,0.186325 12.458985,-0.462442 3.970817,-0.648768 5.376463,1.225427 7.563095,5.442512 2.186632,4.217086 5.154105,10.776766 8.590235,12.260496 3.43613,1.48373 7.340703,-2.10848 10.386349,-6.40364 3.04565,-4.295164 5.23221,-9.29301 10.38642,-9.058677 5.15422,0.234333 13.27573,5.700734 17.41465,5.622583 4.13893,-0.07815 4.29511,-5.700732 6.53466,-8.518558 2.23954,-2.817826 6.56219,-2.830786 6.56219,-6.188849 0,-3.358062 -4.32274,-10.060978 -2.90916,-19.171361 1.41358,-9.110382 8.56315,-20.627461 5.98603,-23.048392 -2.57712,-2.420931 -14.88084,4.25469 -21.18902,6.655439 -6.30819,2.40075 -6.62055,0.526554 -8.10434,0.760857 -1.4838,0.234303 -4.1389,2.577041 -5.85696,3.748437 -1.71805,1.171397 -2.49897,1.171397 -2.88943,1.171397 -0.39046,0 -0.39046,4e-6 -2.88944,-1.483762 z"
       id="path1"
       inkscape:path-effect="#path-effect1"
       inkscape:original-d="m 108.23685,52.94703 c -4.99795,-2.967533 -9.995903,-5.935068 -14.993853,-8.9026 -3.748538,1.405702 -7.496924,2.811349 -11.245387,4.217022 -0.937133,5.622806 -1.874229,11.245387 -2.811346,16.868079 -4.060915,0.624755 -8.121669,1.249487 -12.182502,1.874231 -2.631339,9.887997 -5.26252,19.775398 -7.893858,29.663393 6.536065,-3.171866 13.071869,-6.343606 19.607804,-9.515409 1.405699,1.874269 2.811346,3.748463 4.217019,5.622695 2.96759,6.559939 5.935064,13.119619 8.902597,19.679429 3.904726,-3.59235 7.809296,-7.18456 11.713946,-10.77683 2.18665,-4.998053 4.3732,-9.995903 6.55981,-14.99385 8.12183,5.466614 16.24334,10.933015 24.365,16.39952 0.15619,-5.622805 0.31237,-11.245386 0.46856,-16.868078 4.3229,-0.01296 8.64555,-0.02592 12.96845,-0.03888 -4.3229,-6.703165 -8.64564,-13.40608 -12.96845,-20.109111 7.14997,-11.517738 14.29954,-23.034814 21.44953,-34.552574 -12.30423,6.675899 -24.60795,13.351519 -36.91194,20.027286 -0.31237,-1.874269 -0.62474,-3.748464 -0.93711,-5.622695 -2.65522,2.342835 -5.31032,4.685577 -7.96549,7.028368 -0.78094,0 -1.56186,0 -2.34278,0 z"
       transform="matrix(0.75464808,0.160625,-0.12237252,0.46390437,16.473189,24.909454)"
       sodipodi:nodetypes="cccccccccccccccccccc" />
    <path
       style="fill:none;fill-opacity:0.601363;stroke:#000000;stroke-width:1.065;stroke-miterlimit:3.8"
       d="M 44.540087,175.15457 C 42.627323,159.85246 40.714559,144.55035 36.0692,124.73933 31.423841,104.92831 24.046182,80.60936 16.668376,56.289926"
       id="path2"
       inkscape:path-effect="#path-effect2"
       inkscape:original-d="M 44.540087,175.15457 C 42.627322,159.85246 40.714559,144.55035 38.801794,129.24823 31.42384,104.92831 24.046182,80.60936 16.668376,56.289926"
       transform="matrix(1.0435426,-0.09319096,0.089966,1.0074298,3.349037,-47.076031)" />
    <path
       style="fill:none;fill-opacity:0.601363;stroke:#000000;stroke-width:1.065;stroke-miterlimit:3.8"
       d="M 44.540087,175.15457 C 42.627323,159.85246 40.714559,144.55035 36.0692,124.73933 31.423841,104.92831 24.046182,80.60936 16.668376,56.289926"
       id="path2-6"
       inkscape:path-effect="#path-effect2-8"
       inkscape:original-d="M 44.540087,175.15457 C 42.627322,159.85246 40.714559,144.55035 38.801794,129.24823 31.42384,104.92831 24.046182,80.60936 16.668376,56.289926"
       transform="matrix(-1.0991115,-0.15864909,-0.12124578,0.98333055,173.21855,-34.369839)" />
    <g
       id="g3"
       transform="rotate(-5.1031194,1110.3898,1299.8614)">
      <path
         style="fill:#aa0000;fill-opacity:0.601363;stroke:#000000;stroke-width:1.065;stroke-miterlimit:3.8"
         d="m 105.73787,51.463264 c -2.49897,-1.483767 -7.496923,-4.451301 -11.870167,-5.232217 -4.373244,-0.780915 -8.12163,0.624731 -10.464429,4.138971 -2.342798,3.51424 -3.279895,9.136821 -5.77891,12.260545 -2.499015,3.123724 -6.559769,3.748455 -9.905855,9.004826 -3.346086,5.25637 -5.977267,15.143771 -4.024903,18.501835 1.952363,3.358065 8.488167,0.186325 12.458985,-0.462442 3.970817,-0.648768 5.376463,1.225427 7.563095,5.442512 2.186632,4.217086 5.154105,10.776766 8.590235,12.260496 3.43613,1.48373 7.340703,-2.10848 10.386349,-6.40364 3.04565,-4.295164 5.23221,-9.29301 10.38642,-9.058677 5.15422,0.234333 13.27573,5.700734 17.41465,5.622583 4.13893,-0.07815 4.29511,-5.700732 6.53466,-8.518558 2.23954,-2.817826 6.56219,-2.830786 6.56219,-6.188849 0,-3.358062 -4.32274,-10.060978 -2.90916,-19.171361 1.41358,-9.110382 8.56315,-20.627461 5.98603,-23.048392 -2.57712,-2.420931 -14.88084,4.25469 -21.18902,6.655439 -6.30819,2.40075 -6.62055,0.526554 -8.10434,0.760857 -1.4838,0.234303 -4.1389,2.577041 -5.85696,3.748437 -1.71805,1.171397 -2.49897,1.171397 -2.88943,1.171397 -0.39046,0 -0.39046,4e-6 -2.88944,-1.483762 z"
         id="path1-3"
         inkscape:path-effect="#path-effect1-1"
         inkscape:original-d="m 108.23685,52.94703 c -4.99795,-2.967533 -9.995903,-5.935068 -14.993853,-8.9026 -3.748538,1.405702 -7.496924,2.811349 -11.245387,4.217022 -0.937133,5.622806 -1.874229,11.245387 -2.811346,16.868079 -4.060915,0.624755 -8.121669,1.249487 -12.182502,1.874231 -2.631339,9.887997 -5.26252,19.775398 -7.893858,29.663393 6.536065,-3.171866 13.071869,-6.343606 19.607804,-9.515409 1.405699,1.874269 2.811346,3.748463 4.217019,5.622695 2.96759,6.559939 5.935064,13.119619 8.902597,19.679429 3.904726,-3.59235 7.809296,-7.18456 11.713946,-10.77683 2.18665,-4.998053 4.3732,-9.995903 6.55981,-14.99385 8.12183,5.466614 16.24334,10.933015 24.365,16.39952 0.15619,-5.622805 0.31237,-11.245386 0.46856,-16.868078 4.3229,-0.01296 8.64555,-0.02592 12.96845,-0.03888 -4.3229,-6.703165 -8.64564,-13.40608 -12.96845,-20.109111 7.14997,-11.517738 14.29954,-23.034814 21.44953,-34.552574 -12.30423,6.675899 -24.60795,13.351519 -36.91194,20.027286 -0.31237,-1.874269 -0.62474,-3.748464 -0.93711,-5.622695 -2.65522,2.342835 -5.31032,4.685577 -7.96549,7.028368 -0.78094,0 -1.56186,0 -2.34278,0 z"
         transform="matrix(-0.73736947,-0.22711315,0.16315108,-0.4511807,237.74909,211.59206)"
         sodipodi:nodetypes="cccccccccccccccccccc" />
      <path
         style="fill:none;fill-opacity:0.601363;stroke:#000000;stroke-width:1.065;stroke-miterlimit:3.8"
         d="M 44.540087,175.15457 C 42.627323,159.85246 40.714559,144.55035 36.0692,124.73933 31.423841,104.92831 24.046182,80.60936 16.668376,56.289926"
         id="path2-8"
         inkscape:path-effect="#path-effect2-3"
         inkscape:original-d="M 44.540087,175.15457 C 42.627322,159.85246 40.714559,144.55035 38.801794,129.24823 31.42384,104.92831 24.046182,80.60936 16.668376,56.289926"
         transform="matrix(-1.0476954,0,0,-1.011439,244.41821,284.45959)" />
      <path
         style="fill:none;fill-opacity:0.601363;stroke:#000000;stroke-width:1.065;stroke-miterlimit:3.8"
         d="M 44.540087,175.15457 C 42.627323,159.85246 40.714559,144.55035 36.0692,124.73933 31.423841,104.92831 24.046182,80.60936 16.668376,56.289926"
         id="path2-6-1"
         inkscape:path-effect="#path-effect2-8-7"
         inkscape:original-d="M 44.540087,175.15457 C 42.627322,159.85246 40.714559,144.55035 38.801794,129.24823 31.42384,104.92831 24.046182,80.60936 16.668376,56.289926"
         transform="matrix(1.0806433,0.25578459,0.208231,-0.96864821,76.352223,256.69412)" />
    </g>
  </g>
</svg>
