<?xml version="1.0" encoding="UTF-8" standalone="no"?>
<!-- Created with Inkscape (http://www.inkscape.org/) -->

<svg
   width="470mm"
   height="180mm"
   viewBox="0 0 470 180"
   version="1.1"
   id="svg1"
   xml:space="preserve"
   inkscape:version="1.3 (0e150ed, 2023-07-21)"
   sodipodi:docname="KN.svg"
   xmlns:inkscape="http://www.inkscape.org/namespaces/inkscape"
   xmlns:sodipodi="http://sodipodi.sourceforge.net/DTD/sodipodi-0.dtd"
   xmlns="http://www.w3.org/2000/svg"
   xmlns:svg="http://www.w3.org/2000/svg"><sodipodi:namedview
     id="namedview1"
     pagecolor="#ffffff"
     bordercolor="#000000"
     borderopacity="0.25"
     inkscape:showpageshadow="2"
     inkscape:pageopacity="0.0"
     inkscape:pagecheckerboard="0"
     inkscape:deskcolor="#d1d1d1"
     inkscape:document-units="mm"
     inkscape:zoom="0.97059669"
     inkscape:cx="805.68996"
     inkscape:cy="323.51233"
     inkscape:window-width="2560"
     inkscape:window-height="1387"
     inkscape:window-x="0"
     inkscape:window-y="25"
     inkscape:window-maximized="0"
     inkscape:current-layer="layer1" /><defs
     id="defs1"><marker
       style="overflow:visible"
       id="Triangle"
       refX="0"
       refY="0"
       orient="auto-start-reverse"
       inkscape:stockid="Triangle arrow"
       markerWidth="1"
       markerHeight="1"
       viewBox="0 0 1 1"
       inkscape:isstock="true"
       inkscape:collect="always"
       preserveAspectRatio="xMidYMid"><path
         transform="scale(0.5)"
         style="fill:context-stroke;fill-rule:evenodd;stroke:context-stroke;stroke-width:1pt"
         d="M 5.77,0 -2.88,5 V -5 Z"
         id="path135" /></marker><inkscape:path-effect
       effect="bspline"
       id="path-effect2"
       is_visible="true"
       lpeversion="1.3"
       weight="33.333333"
       steps="2"
       helper_size="0"
       apply_no_weight="true"
       apply_with_weight="true"
       only_selected="false"
       uniform="false" /><inkscape:path-effect
       effect="bspline"
       id="path-effect1"
       is_visible="true"
       lpeversion="1.3"
       weight="33.333333"
       steps="2"
       helper_size="0"
       apply_no_weight="true"
       apply_with_weight="true"
       only_selected="false"
       uniform="false" /><inkscape:path-effect
       effect="bspline"
       id="path-effect9"
       is_visible="true"
       lpeversion="1.3"
       weight="33.333333"
       steps="2"
       helper_size="0"
       apply_no_weight="true"
       apply_with_weight="true"
       only_selected="false"
       uniform="false" /><inkscape:path-effect
       effect="bspline"
       id="path-effect5"
       is_visible="true"
       lpeversion="1.3"
       weight="33.333333"
       steps="2"
       helper_size="0"
       apply_no_weight="true"
       apply_with_weight="true"
       only_selected="false"
       uniform="false" /><rect
       x="1495.9771"
       y="85.681366"
       width="284.61972"
       height="148.71133"
       id="rect27" /><inkscape:path-effect
       effect="bspline"
       id="path-effect25"
       is_visible="true"
       lpeversion="1.3"
       weight="33.333333"
       steps="2"
       helper_size="0"
       apply_no_weight="true"
       apply_with_weight="true"
       only_selected="false"
       uniform="false" /><rect
       x="340.34518"
       y="456.15707"
       width="63.81472"
       height="35.452621"
       id="rect25" /><inkscape:path-effect
       effect="bspline"
       id="path-effect21"
       is_visible="true"
       lpeversion="1.3"
       weight="33.333333"
       steps="2"
       helper_size="0"
       apply_no_weight="true"
       apply_with_weight="true"
       only_selected="false"
       uniform="false" /><inkscape:path-effect
       effect="bspline"
       id="path-effect20"
       is_visible="true"
       lpeversion="1.3"
       weight="33.333333"
       steps="2"
       helper_size="0"
       apply_no_weight="true"
       apply_with_weight="true"
       only_selected="false"
       uniform="false" /><inkscape:path-effect
       effect="bspline"
       id="path-effect19"
       is_visible="true"
       lpeversion="1.3"
       weight="33.333333"
       steps="2"
       helper_size="0"
       apply_no_weight="true"
       apply_with_weight="true"
       only_selected="false"
       uniform="false" /><inkscape:path-effect
       effect="bspline"
       id="path-effect18"
       is_visible="true"
       lpeversion="1.3"
       weight="33.333333"
       steps="2"
       helper_size="0"
       apply_no_weight="true"
       apply_with_weight="true"
       only_selected="false"
       uniform="false" /><inkscape:path-effect
       effect="bspline"
       id="path-effect17"
       is_visible="true"
       lpeversion="1.3"
       weight="33.333333"
       steps="2"
       helper_size="0"
       apply_no_weight="true"
       apply_with_weight="true"
       only_selected="false"
       uniform="false" /><inkscape:path-effect
       effect="bspline"
       id="path-effect16"
       is_visible="true"
       lpeversion="1.3"
       weight="33.333333"
       steps="2"
       helper_size="0"
       apply_no_weight="true"
       apply_with_weight="true"
       only_selected="false"
       uniform="false" /><inkscape:path-effect
       effect="bspline"
       id="path-effect15"
       is_visible="true"
       lpeversion="1.3"
       weight="33.333333"
       steps="2"
       helper_size="0"
       apply_no_weight="true"
       apply_with_weight="true"
       only_selected="false"
       uniform="false" /><inkscape:path-effect
       effect="bspline"
       id="path-effect14"
       is_visible="true"
       lpeversion="1.3"
       weight="33.333333"
       steps="2"
       helper_size="0"
       apply_no_weight="true"
       apply_with_weight="true"
       only_selected="false"
       uniform="false" /><inkscape:path-effect
       effect="bspline"
       id="path-effect13"
       is_visible="true"
       lpeversion="1.3"
       weight="33.333333"
       steps="2"
       helper_size="0"
       apply_no_weight="true"
       apply_with_weight="true"
       only_selected="false"
       uniform="false" /><inkscape:path-effect
       effect="bspline"
       id="path-effect12"
       is_visible="true"
       lpeversion="1.3"
       weight="33.333333"
       steps="2"
       helper_size="0"
       apply_no_weight="true"
       apply_with_weight="true"
       only_selected="false"
       uniform="false" /><inkscape:path-effect
       effect="bspline"
       id="path-effect10"
       is_visible="true"
       lpeversion="1.3"
       weight="33.333333"
       steps="2"
       helper_size="0"
       apply_no_weight="true"
       apply_with_weight="true"
       only_selected="false"
       uniform="false" /><inkscape:path-effect
       effect="bspline"
       id="path-effect8"
       is_visible="true"
       lpeversion="1.3"
       weight="33.333333"
       steps="2"
       helper_size="0"
       apply_no_weight="true"
       apply_with_weight="true"
       only_selected="false"
       uniform="false" /><inkscape:path-effect
       effect="bspline"
       id="path-effect6"
       is_visible="true"
       lpeversion="1.3"
       weight="33.333333"
       steps="2"
       helper_size="0"
       apply_no_weight="true"
       apply_with_weight="true"
       only_selected="false"
       uniform="false" /><inkscape:path-effect
       effect="bspline"
       id="path-effect4"
       is_visible="true"
       lpeversion="1.3"
       weight="33.333333"
       steps="2"
       helper_size="0"
       apply_no_weight="true"
       apply_with_weight="true"
       only_selected="false"
       uniform="false" /><style
       type="text/css"
       id="style1">*{stroke-linejoin: round; stroke-linecap: butt}</style><clipPath
       id="pc5503dc91a"><rect
         x="0"
         y="0"
         width="1296"
         height="720"
         id="rect2" /></clipPath><clipPath
       clipPathUnits="userSpaceOnUse"
       id="clipPath4"><path
         style="opacity:0.390845;fill:none;stroke:#000000;stroke-width:1.06;stroke-miterlimit:3.8"
         d="m 75.480549,-16.432185 c -5.375013,1.68929 -9.444666,4.453584 -12.017004,8.1393533 -2.572339,3.6857695 -3.64732,8.29283192128561 -3.263372,12.8232448 0.383947,4.5304129 2.226772,8.9839069 4.645558,12.5544789 2.418786,3.570572 5.413377,6.258025 7.448214,8.638409 2.034838,2.380384 3.10982,4.453563 1.727635,6.718771 -1.382184,2.265209 -5.221404,4.722309 -8.56162,7.601814 -3.340216,2.879504 -6.181237,6.181232 -7.563383,8.56161 -1.382146,2.380378 -1.305361,3.83928 0.307175,4.031235 1.612536,0.191954 4.760694,-0.883026 8.100917,-2.111615 3.340222,-1.228589 6.872304,-2.610708 9.559829,-4.261624 2.687525,-1.650917 4.530351,-3.570527 7.870585,-3.148177 3.340235,0.422351 8.177652,3.186588 13.514331,6.142876 5.336676,2.956288 11.172296,6.104449 16.470566,8.062497 5.29827,1.958048 10.05891,2.725894 13.70626,2.610704 3.64736,-0.115189 6.18124,-1.113384 8.40805,-3.378606 2.22682,-2.265221 4.14642,-5.797299 5.72055,-9.636636 1.57412,-3.839338 2.80267,-7.985694 3.1482,-12.285749 0.34554,-4.300056 -0.19196,-8.753549 -1.19019,-12.746452 -0.99823,-3.992902 -2.45714,-7.524982 -4.53038,-11.095564 -2.07325,-3.5705816 -4.7607,-7.1794457 -7.79378,-10.48126868 -3.03307,-3.30182302 -6.41159,-6.29641732 -10.51968,-9.17591512 -4.10809,-2.8794982 -8.94551,-5.6437382 -13.47592,-7.3714282 -4.53041,-1.72769 -8.753552,-2.418749 -14.205419,-2.457136 -5.451866,-0.03839 -12.132109,0.575888 -17.507122,2.265178 z"
         id="path5"
         inkscape:path-effect="#path-effect4"
         inkscape:original-d="m 74.17519,-17.507188 c -4.069654,2.764293 -8.139308,5.528586 -12.208959,8.2928788 C 60.891205,-4.6070625 59.816224,0 58.741222,4.6071546 c 1.842897,4.4536719 3.685722,8.9071654 5.528585,13.3607484 2.99471,2.687561 5.989301,5.375014 8.983951,8.06252 1.075026,2.073261 2.150007,4.146441 3.225009,6.21966 -3.839372,2.457196 -7.678592,4.914297 -11.517887,7.371448 -2.841135,3.30186 -5.682157,6.603587 -8.523237,9.905381 0.07679,1.458962 0.153572,2.917864 0.23036,4.376798 3.148285,-1.075026 6.296442,-2.150007 9.444667,-3.225009 3.532221,-1.382175 7.064303,-2.764292 10.596454,-4.146439 1.842899,-1.919687 3.685725,-3.839297 5.528585,-5.758944 4.837609,2.764348 9.675026,5.528585 14.512538,8.292877 5.835843,3.148288 11.671463,6.296446 17.507193,9.444667 4.76081,0.767877 9.52145,1.535719 14.28217,2.303579 2.53399,-0.998238 5.06787,-1.996434 7.60181,-2.994652 1.91969,-3.532222 3.83929,-7.064303 5.75894,-10.596454 1.2286,-4.146523 2.45715,-8.29288 3.68573,-12.439319 -0.53752,-4.45367 -1.07501,-8.907164 -1.61251,-13.360747 -1.45896,-3.532223 -2.91786,-7.064304 -4.3768,-10.596456 C 136.90922,7.2178033 134.22177,3.6089378 131.53426,0 c -3.37864,-2.9947105 -6.75716,-5.9893009 -10.13574,-8.9839516 -4.8376,-2.7643474 -9.67502,-5.5285854 -14.51253,-8.2928784 -4.22331,-0.691087 -8.446452,-1.382146 -12.669679,-2.073219 -6.680506,0.614299 -13.360749,1.228574 -20.041121,1.842861 z" /></clipPath><clipPath
       clipPathUnits="userSpaceOnUse"
       id="clipPath6"><path
         style="opacity:0.214789;fill:none;stroke:#000000;stroke-width:1.06;stroke-miterlimit:3.8"
         d="m 101.72754,16.160343 c -0.73547,0.50375 -2.206425,1.511254 -4.040102,2.810948 -1.833676,1.299695 -4.029987,2.891517 -7.959305,5.541287 -3.929318,2.649769 -9.591369,6.357304 -13.560952,8.926451 -3.969584,2.569146 -6.246494,3.99977 -7.415197,4.795699 -1.168704,0.79593 -1.229153,0.957128 -1.198927,1.128404 0.03023,0.171277 0.151124,0.352625 0.332478,0.453376 0.181353,0.10075 0.423147,0.1209 1.591871,-0.463463 1.168724,-0.584364 3.264288,-1.773193 5.511044,-2.951983 2.246755,-1.178791 4.644562,-2.34747 7.354775,-3.536336 2.710213,-1.188865 5.73266,-2.397843 8.180911,-3.415429 2.44825,-1.017586 4.322167,-1.843722 6.004712,-2.599356 1.682545,-0.755634 3.173617,-1.440722 4.825942,-2.246733 1.65232,-0.806011 3.46579,-1.732894 4.42292,-2.35755 0.95713,-0.624656 1.05787,-0.947049 0.93697,-1.773214 -0.12091,-0.826165 -0.46345,-2.156044 -0.95713,-3.052725 -0.49368,-0.896682 -1.13847,-1.360125 -1.71275,-1.581775 -0.57428,-0.221651 -1.07802,-0.201501 -1.3299,-0.191426 -0.25188,0.01008 -0.25188,0.01007 -0.98736,0.513825 z"
         id="path7"
         inkscape:path-effect="#path-effect6"
         inkscape:original-d="m 102.46302,15.656592 c -1.47095,1.007502 -2.941905,2.015005 -4.412859,3.022508 -2.196399,1.591886 -4.39271,3.183708 -6.589067,4.775563 -5.662279,3.707684 -11.32433,7.415219 -16.986496,11.12283 -2.277001,1.430682 -4.55391,2.861307 -6.830867,4.29196 -0.06045,0.161205 -0.120901,0.322403 -0.18135,0.483603 0.120901,0.181353 0.2418,0.362701 0.362701,0.544052 0.241805,0.02016 0.4836,0.0403 0.7254,0.06045 2.095648,-1.188876 4.191212,-2.377707 6.286818,-3.566559 2.397905,-1.168728 4.795713,-2.337406 7.193568,-3.506111 3.022571,-1.209026 6.045017,-2.418005 9.067525,-3.627008 1.873993,-0.82617 3.74791,-1.652305 5.621866,-2.478458 1.491134,-0.685115 2.982206,-1.370203 4.473311,-2.055305 1.81354,-0.926921 3.62701,-1.853805 5.44052,-2.780707 0.10075,-0.322408 0.20149,-0.644802 0.30224,-0.967203 -0.34255,-1.32993 -0.6851,-2.659807 -1.02765,-3.989711 -0.64481,-0.46346 -1.2896,-0.926902 -1.9344,-1.390353 -0.50376,0.02015 -1.0075,0.0403 -1.51126,0.06045 z" /></clipPath><clipPath
       clipPathUnits="userSpaceOnUse"
       id="clipPath8"><path
         style="opacity:0.792254;fill:none;stroke:#000000;stroke-width:1.06;stroke-miterlimit:3.8"
         d="m 120.87924,19.477095 c -1.40962,-0.409246 -2.98598,-0.712392 -5.01708,-1.061013 -2.0311,-0.348622 -4.51684,-0.742703 -6.72982,-0.575964 -2.21299,0.166738 -4.15308,0.894271 -6.09323,1.864348 -1.94015,0.970077 -3.880239,2.182634 -5.50208,3.637749 -1.621841,1.455116 -2.925341,3.152697 -3.34974,5.365685 -0.424399,2.212988 0.03031,4.941242 0.87913,7.381585 0.84882,2.440344 2.09169,4.592631 3.546805,6.366045 1.455115,1.773415 3.122385,3.167858 5.229265,4.895807 2.10689,1.72795 4.65326,3.789298 7.51801,4.986726 2.86476,1.197427 6.04773,1.530881 8.74574,1.106465 2.69802,-0.424416 4.91094,-1.60666 7.18455,-3.743864 2.27361,-2.137204 4.60779,-5.229228 5.881,-7.730198 1.27321,-2.50097 1.48541,-4.410746 1.01552,-6.578259 -0.46988,-2.167513 -1.62182,-4.592627 -3.30429,-7.048131 -1.68248,-2.455503 -3.8954,-4.941249 -5.62334,-6.441823 -1.72794,-1.500575 -2.97081,-2.015912 -4.38044,-2.425158 z"
         id="path9"
         inkscape:path-effect="#path-effect8"
         inkscape:original-d="m 121.04597,19.370993 c -1.57635,-0.303145 -3.15271,-0.606291 -4.72907,-0.909436 -2.48584,-0.394097 -4.97158,-0.788178 -7.45737,-1.182267 -1.94018,0.727563 -3.88027,1.455098 -5.8204,2.182647 -1.94017,1.212606 -3.880259,2.425163 -5.82039,3.637745 -1.303552,1.697648 -2.607051,3.39523 -3.910576,5.092844 0.454728,2.728362 0.909436,5.456616 1.364154,8.184925 1.242923,2.152377 2.485792,4.304665 3.728688,6.456997 1.667334,1.394497 3.334604,2.788939 5.001904,4.183409 2.54647,2.06143 5.09284,4.122778 7.63926,6.184167 3.18309,0.333465 6.36606,0.66692 9.54908,1.000379 2.21301,-1.18229 4.42593,-2.364533 6.63889,-3.5468 2.33426,-3.092146 4.66844,-6.184167 7.00266,-9.276252 0.2122,-1.909855 0.4244,-3.819631 0.6366,-5.729449 -1.15197,-2.42521 -2.3039,-4.850325 -3.45586,-7.275488 -2.213,-2.485844 -4.42592,-4.971587 -6.63888,-7.457379 -1.24292,-0.515358 -2.48579,-1.030695 -3.72869,-1.546042 z" /></clipPath><clipPath
       clipPathUnits="userSpaceOnUse"
       id="clipPath10"><path
         style="opacity:0.373239;fill:none;stroke:#000000;stroke-width:1.06;stroke-miterlimit:3.8"
         d="M 184.01235,8.3112047 C 180.51487,7.295809 176.90457,6.919736 173.63271,7.4086453 c -3.27186,0.4889092 -6.20517,1.8427446 -7.55903,3.4974817 -1.35385,1.654738 -1.12821,3.610276 0.11285,5.189794 1.24106,1.579518 3.49745,2.782927 4.24959,4.96418 0.75213,2.181252 0,5.3402 -0.75215,8.386417 -0.75215,3.046217 -1.50428,5.979525 -2.5573,7.972721 -1.05302,1.993196 -2.40685,3.046178 -3.159,4.174408 -0.75214,1.12823 -0.90257,2.331639 -1.91799,3.384651 -1.01541,1.053012 -2.89573,1.955565 -3.64787,3.008583 -0.75215,1.053017 -0.37608,2.256422 -0.63934,3.760731 -0.26326,1.50431 -1.16582,3.309426 -2.70774,4.512863 -1.54192,1.203437 -3.7231,1.805142 -7.70953,2.933375 -3.98642,1.128234 -9.77783,2.782922 -12.59837,5.453075 -2.82055,2.670152 -2.67012,6.355591 -1.57949,9.477018 1.09063,3.121428 3.12139,5.678674 5.82914,8.047952 2.70776,2.369279 6.09235,4.550458 9.89072,5.340204 3.79838,0.789746 8.01031,0.188042 11.31977,-0.977799 3.30946,-1.165841 5.71628,-2.895742 6.12995,-5.076991 0.41366,-2.181249 -1.16581,-4.813703 -2.5949,-6.656469 -1.42909,-1.842767 -2.70771,-2.895749 -3.12139,-5.265045 -0.41367,-2.369295 0.0376,-6.054732 0.67694,-8.912904 0.63933,-2.858173 1.46667,-4.888926 2.5949,-6.017145 1.12823,-1.128219 2.55728,-1.353859 3.1966,-1.955584 0.63933,-0.601726 0.4889,-1.579497 0.56412,-2.67012 0.0752,-1.090624 0.37607,-2.29403 1.12822,-2.970962 0.75216,-0.676933 1.95557,-0.827359 2.48207,-1.391479 0.5265,-0.564119 0.37608,-1.541886 0.67694,-2.745333 0.30087,-1.203448 1.053,-2.632497 2.36927,-4.55049 1.31627,-1.917993 3.1966,-4.324812 6.54369,-6.280405 3.3471,-1.955593 8.16073,-3.459853 11.50779,-4.287214 3.34707,-0.827361 5.2274,-0.977787 6.12997,-1.805161 0.90258,-0.827374 0.82736,-2.331636 -0.0376,-4.663319 -0.86498,-2.331684 -2.51967,-5.490628 -5.03939,-7.897509 -2.51972,-2.406881 -5.90431,-4.0615697 -9.40178,-5.0769653 z"
         id="path11"
         inkscape:path-effect="#path-effect10"
         inkscape:original-d="m 184.12517,7.671882 c -3.6103,-0.3760726 -7.2206,-0.7521453 -10.83089,-1.1282179 -2.93343,1.3538885 -5.86674,2.707723 -8.8001,4.0615849 0.22564,1.955617 0.45128,3.911155 0.67693,5.866733 2.25648,1.203457 4.51287,2.406865 6.7693,3.610297 -0.75216,3.159074 -1.50429,6.318021 -2.25643,9.477031 -0.75216,2.933425 -1.50429,5.866734 -2.25644,8.8001 -1.35389,1.053023 -2.70772,2.106007 -4.06158,3.159011 -0.15044,1.203455 -0.30086,2.406865 -0.45129,3.610296 -1.8804,0.902594 -3.76072,1.805148 -5.64109,2.707724 0.37608,1.203457 0.75214,2.406864 1.12822,3.610298 -0.90259,1.805183 -1.80515,3.610298 -2.70772,5.415444 -2.18127,0.601729 -4.36245,1.203433 -6.54367,1.805149 -5.79163,1.654754 -11.58304,3.30944 -17.37456,4.96416 0.15044,3.685585 0.30086,7.371024 0.45129,11.056535 2.03083,2.557346 4.06159,5.114589 6.09238,7.671882 3.38472,2.181265 6.76931,4.362442 10.15396,6.543664 4.2121,-0.601728 8.42403,-1.203433 12.63604,-1.805148 2.40691,-1.729968 4.81373,-3.459869 7.2206,-5.189802 -1.57954,-2.632562 -3.15901,-5.265018 -4.73852,-7.897527 -1.27867,-1.053023 -2.55729,-2.106007 -3.83594,-3.159009 0.4513,-3.685587 0.90257,-7.371024 1.35386,-11.056535 0.82738,-2.030833 1.65472,-4.061587 2.48208,-6.092378 1.4291,-0.225647 2.85815,-0.451286 4.28723,-0.676931 -0.15043,-0.977807 -0.30086,-1.955578 -0.45129,-2.933366 0.30087,-1.203458 0.60172,-2.406865 0.90258,-3.610298 1.20345,-0.150432 2.40686,-0.300858 3.61029,-0.451287 -0.15043,-0.97781 -0.30085,-1.955577 -0.45128,-2.933366 0.75216,-1.429105 1.50429,-2.858154 2.25643,-4.287229 1.8804,-2.406912 3.76073,-4.813729 5.64109,-7.220596 4.81383,-1.50432 9.62746,-3.008579 14.44119,-4.512871 1.8804,-0.150431 3.76073,-0.300857 5.64109,-0.451286 -0.0752,-1.504321 -0.15043,-3.008582 -0.22564,-4.512872 -1.65476,-3.159074 -3.30944,-6.318021 -4.96416,-9.477031 -3.38472,-1.654753 -6.76931,-3.3094395 -10.15396,-4.964159 z" /></clipPath><inkscape:path-effect
       effect="bspline"
       id="path-effect13-5"
       is_visible="true"
       lpeversion="1.3"
       weight="33.333333"
       steps="2"
       helper_size="0"
       apply_no_weight="true"
       apply_with_weight="true"
       only_selected="false"
       uniform="false" /><inkscape:path-effect
       effect="bspline"
       id="path-effect15-7"
       is_visible="true"
       lpeversion="1.3"
       weight="33.333333"
       steps="2"
       helper_size="0"
       apply_no_weight="true"
       apply_with_weight="true"
       only_selected="false"
       uniform="false" /><inkscape:path-effect
       effect="bspline"
       id="path-effect16-4"
       is_visible="true"
       lpeversion="1.3"
       weight="33.333333"
       steps="2"
       helper_size="0"
       apply_no_weight="true"
       apply_with_weight="true"
       only_selected="false"
       uniform="false" /><inkscape:path-effect
       effect="bspline"
       id="path-effect18-4"
       is_visible="true"
       lpeversion="1.3"
       weight="33.333333"
       steps="2"
       helper_size="0"
       apply_no_weight="true"
       apply_with_weight="true"
       only_selected="false"
       uniform="false" /><inkscape:path-effect
       effect="bspline"
       id="path-effect16-4-0"
       is_visible="true"
       lpeversion="1.3"
       weight="33.333333"
       steps="2"
       helper_size="0"
       apply_no_weight="true"
       apply_with_weight="true"
       only_selected="false"
       uniform="false" /><inkscape:path-effect
       effect="bspline"
       id="path-effect20-3"
       is_visible="true"
       lpeversion="1.3"
       weight="33.333333"
       steps="2"
       helper_size="0"
       apply_no_weight="true"
       apply_with_weight="true"
       only_selected="false"
       uniform="false" /><inkscape:path-effect
       effect="bspline"
       id="path-effect16-4-5"
       is_visible="true"
       lpeversion="1.3"
       weight="33.333333"
       steps="2"
       helper_size="0"
       apply_no_weight="true"
       apply_with_weight="true"
       only_selected="false"
       uniform="false" /><style
       type="text/css"
       id="style1-7">*{stroke-linejoin: round; stroke-linecap: butt}</style><clipPath
       id="pcc9ea54108"><rect
         x="0"
         y="0"
         width="1296"
         height="720"
         id="rect2-7" /></clipPath><clipPath
       clipPathUnits="userSpaceOnUse"
       id="clipPath3"><rect
         style="fill:#ffffff;stroke-width:1.06;stroke-miterlimit:3.8;stroke-opacity:0.940476"
         id="rect4"
         width="134.74315"
         height="110.69668"
         x="-9.5356693"
         y="-103.23399" /></clipPath><clipPath
       clipPathUnits="userSpaceOnUse"
       id="clipPath5"><rect
         style="fill:#ffffff;stroke-width:1.06;stroke-miterlimit:3.8;stroke-opacity:0.940476"
         id="rect6"
         width="42.797981"
         height="113.44396"
         x="34.443581"
         y="-102.74447" /></clipPath><inkscape:path-effect
       effect="bspline"
       id="path-effect18-2"
       is_visible="true"
       lpeversion="1.3"
       weight="33.333333"
       steps="2"
       helper_size="0"
       apply_no_weight="true"
       apply_with_weight="true"
       only_selected="false"
       uniform="false" /><inkscape:path-effect
       effect="bspline"
       id="path-effect18-4-3"
       is_visible="true"
       lpeversion="1.3"
       weight="33.333333"
       steps="2"
       helper_size="0"
       apply_no_weight="true"
       apply_with_weight="true"
       only_selected="false"
       uniform="false" /><inkscape:path-effect
       effect="bspline"
       id="path-effect18-2-2"
       is_visible="true"
       lpeversion="1.3"
       weight="33.333333"
       steps="2"
       helper_size="0"
       apply_no_weight="true"
       apply_with_weight="true"
       only_selected="false"
       uniform="false" /><inkscape:path-effect
       effect="bspline"
       id="path-effect1-6"
       is_visible="true"
       lpeversion="1.3"
       weight="33.333333"
       steps="2"
       helper_size="0"
       apply_no_weight="true"
       apply_with_weight="true"
       only_selected="false"
       uniform="false" /></defs><g
     inkscape:label="Layer 1"
     inkscape:groupmode="layer"
     id="layer1"><path
       style="fill:none;fill-opacity:1;stroke:#000000;stroke-width:1.065;stroke-miterlimit:3.8;stroke-opacity:1"
       d="m 63.886044,53.66851 c 4.468999,-1.221388 8.937904,-2.442751 11.817083,-0.305417 2.879179,2.137335 4.168396,7.633193 5.457639,13.129163"
       id="path1"
       inkscape:path-effect="#path-effect1"
       inkscape:original-d="m 63.886044,53.66851 c 4.468999,-1.221388 8.937904,-2.442751 13.406993,-3.664164 1.289269,5.496082 2.578486,10.99194 3.867729,16.48791"
       transform="translate(-26.202689,9.2279353)"
       sodipodi:nodetypes="ccc" /><path
       style="fill:none;fill-opacity:1;stroke:#000000;stroke-width:1.065;stroke-linecap:butt;stroke-linejoin:round;stroke-miterlimit:3.8;stroke-opacity:1"
       d="m 63.173568,54.177422 c 5.656459,-1.628518 11.312801,-3.257002 14.327692,-1.034848 3.014892,2.222155 3.388086,8.294769 3.761288,14.367505"
       id="path1-9"
       inkscape:path-effect="#path-effect1-6"
       inkscape:original-d="m 63.173568,54.177422 c 5.656459,-1.628518 11.312801,-3.257002 16.969374,-4.885553 0.37321,6.07286 0.746404,12.145474 1.119606,18.21821"
       transform="rotate(180,56.611098,67.767116)"
       sodipodi:nodetypes="ccc" /><path
       style="opacity:0.6;fill:#0000ff;fill-opacity:1;stroke:#0000ff;stroke-width:1.06;stroke-miterlimit:3.8;stroke-opacity:1"
       d="m 279.31876,82.825841 c 0.98456,-4.799712 2.4614,-14.645284 2.87982,-20.3065 0.41843,-5.661217 -0.22152,-7.138019 -2.04298,-8.245652 -1.82145,-1.107633 -4.82429,-1.846036 -7.65492,-2.116789 -2.83063,-0.270753 -5.48887,-0.07385 -7.95029,0.516898 -2.46142,0.590745 -4.72585,1.57528 -6.59652,2.658306 -1.87068,1.083025 -3.34749,2.264471 -4.92279,3.864395 -1.57531,1.599924 -3.24902,3.618223 -4.40588,5.710427 -1.15686,2.092205 -1.79681,4.258189 -2.14141,6.128861 -0.34459,1.870672 -0.39382,3.445935 0.0246,4.947398 0.41844,1.501463 1.30452,2.929039 3.1506,4.01206 1.84607,1.083021 4.652,1.821423 7.40879,2.658306 2.75678,0.836882 5.46426,1.772193 8.1472,2.461386 2.68294,0.689194 5.34118,1.132234 7.35954,1.427604 2.01836,0.29537 3.39671,0.443051 4.33205,0.639967 0.93534,0.196917 1.4276,0.443044 2.41216,-4.356667 z"
       id="path17"
       inkscape:path-effect="#path-effect18"
       inkscape:original-d="m 278.82649,87.871693 c 1.47682,-9.845566 2.95367,-19.691135 4.4305,-29.536704 -0.63998,-1.476865 -1.27993,-2.953668 -1.9199,-4.430504 -3.00294,-0.738433 -6.00578,-1.476835 -9.00869,-2.215253 -2.65835,0.196914 -5.31659,0.393822 -7.9749,0.590733 -2.26453,0.984578 -4.52896,1.969114 -6.79344,2.95367 -1.47687,1.181492 -2.95368,2.362936 -4.43051,3.544406 -1.67378,2.018382 -3.34749,4.036682 -5.02124,6.055024 -0.63997,2.166067 -1.27992,4.33205 -1.91988,6.498074 -0.0492,1.575321 -0.0985,3.150582 -0.14769,4.725874 0.88612,1.427636 1.7722,2.855214 2.65831,4.282821 2.80604,0.738433 5.61197,1.476835 8.41796,2.215253 2.70758,0.935347 5.41506,1.870657 8.12259,2.805985 2.65835,0.443061 5.31659,0.886103 7.97491,1.329153 1.3784,0.147685 2.75675,0.295368 4.13512,0.44305 0.49231,0.246145 0.98457,0.492279 1.47686,0.738418 z"
       transform="matrix(1.0742263,-0.27698716,0.27698716,1.0742263,-114.71369,55.402315)" /><path
       style="opacity:0.6;fill:#0000ff;fill-opacity:1;stroke:#0000ff;stroke-width:1.06;stroke-linecap:butt;stroke-linejoin:round;stroke-miterlimit:3.8;stroke-opacity:1"
       d="m 279.31876,82.825841 c 0.98456,-4.799712 2.4614,-14.645284 2.87982,-20.3065 0.41843,-5.661217 -0.22152,-7.138019 -2.04298,-8.245652 -1.82145,-1.107633 -4.82429,-1.846036 -7.65492,-2.116789 -2.83063,-0.270753 -5.48887,-0.07385 -7.95029,0.516898 -2.46142,0.590745 -4.72585,1.57528 -6.59652,2.658306 -1.87068,1.083025 -3.34749,2.264471 -4.92279,3.864395 -1.57531,1.599924 -3.24902,3.618223 -4.40588,5.710427 -1.15686,2.092205 -1.79681,4.258189 -2.14141,6.128861 -0.34459,1.870672 -0.39382,3.445935 0.0246,4.947398 0.41844,1.501463 1.30452,2.929039 3.1506,4.01206 1.84607,1.083021 4.652,1.821423 7.40879,2.658306 2.75678,0.836882 5.46426,1.772193 8.1472,2.461386 2.68294,0.689194 5.34118,1.132234 7.35954,1.427604 2.01836,0.29537 3.39671,0.443051 4.33205,0.639967 0.93534,0.196917 1.4276,0.443044 2.41216,-4.356667 z"
       id="path17-4"
       inkscape:path-effect="#path-effect18-4"
       inkscape:original-d="m 278.82649,87.871693 c 1.47682,-9.845566 2.95367,-19.691135 4.4305,-29.536704 -0.63998,-1.476865 -1.27993,-2.953668 -1.9199,-4.430504 -3.00294,-0.738433 -6.00578,-1.476835 -9.00869,-2.215253 -2.65835,0.196914 -5.31659,0.393822 -7.9749,0.590733 -2.26453,0.984578 -4.52896,1.969114 -6.79344,2.95367 -1.47687,1.181492 -2.95368,2.362936 -4.43051,3.544406 -1.67378,2.018382 -3.34749,4.036682 -5.02124,6.055024 -0.63997,2.166067 -1.27992,4.33205 -1.91988,6.498074 -0.0492,1.575321 -0.0985,3.150582 -0.14769,4.725874 0.88612,1.427636 1.7722,2.855214 2.65831,4.282821 2.80604,0.738433 5.61197,1.476835 8.41796,2.215253 2.70758,0.935347 5.41506,1.870657 8.12259,2.805985 2.65835,0.443061 5.31659,0.886103 7.97491,1.329153 1.3784,0.147685 2.75675,0.295368 4.13512,0.44305 0.49231,0.246145 0.98457,0.492279 1.47686,0.738418 z"
       transform="matrix(-1.0742263,0.27698716,-0.27698716,-1.0742263,527.81234,84.729909)" /><circle
       style="fill:#000000;fill-opacity:1;stroke:#000000;stroke-width:2.05825;stroke-miterlimit:3.8;stroke-opacity:1"
       id="path16"
       cx="206.16367"
       cy="69.615715"
       r="7.5781493" /><circle
       style="fill:#00beff;fill-opacity:1;stroke:#00beff;stroke-width:1.31192;stroke-linecap:butt;stroke-linejoin:round;stroke-miterlimit:3.8;stroke-opacity:1"
       id="path16-2"
       cx="34.014168"
       cy="66.700607"
       r="4.8302679" /><circle
       style="fill:#00beff;fill-opacity:1;stroke:#00beff;stroke-width:1.31192;stroke-linecap:butt;stroke-linejoin:round;stroke-miterlimit:3.8;stroke-opacity:1"
       id="path16-2-1"
       cx="53.16518"
       cy="77.44062"
       r="4.8302679" /><path
       style="opacity:0.6;fill:#ff0000;fill-opacity:1;stroke:#ff0000;stroke-width:1.06;stroke-linecap:butt;stroke-linejoin:round;stroke-miterlimit:3.8;stroke-opacity:1"
       d="m 279.31876,82.825841 c 0.98456,-4.799712 2.4614,-14.645284 2.87982,-20.3065 0.41843,-5.661217 -0.22152,-7.138019 -2.04298,-8.245652 -1.82145,-1.107633 -4.82429,-1.846036 -7.65492,-2.116789 -2.83063,-0.270753 -5.48887,-0.07385 -7.95029,0.516898 -2.46142,0.590745 -4.72585,1.57528 -6.59652,2.658306 -1.87068,1.083025 -3.34749,2.264471 -4.92279,3.864395 -1.57531,1.599924 -3.24902,3.618223 -4.40588,5.710427 -1.15686,2.092205 -1.79681,4.258189 -2.14141,6.128861 -0.34459,1.870672 -0.39382,3.445935 0.0246,4.947398 0.41844,1.501463 1.30452,2.929039 3.1506,4.01206 1.84607,1.083021 4.652,1.821423 7.40879,2.658306 2.75678,0.836882 5.46426,1.772193 8.1472,2.461386 2.68294,0.689194 5.34118,1.132234 7.35954,1.427604 2.01836,0.29537 3.39671,0.443051 4.33205,0.639967 0.93534,0.196917 1.4276,0.443044 2.41216,-4.356667 z"
       id="path17-9"
       inkscape:path-effect="#path-effect18-2"
       inkscape:original-d="m 278.82649,87.871693 c 1.47682,-9.845566 2.95367,-19.691135 4.4305,-29.536704 -0.63998,-1.476865 -1.27993,-2.953668 -1.9199,-4.430504 -3.00294,-0.738433 -6.00578,-1.476835 -9.00869,-2.215253 -2.65835,0.196914 -5.31659,0.393822 -7.9749,0.590733 -2.26453,0.984578 -4.52896,1.969114 -6.79344,2.95367 -1.47687,1.181492 -2.95368,2.362936 -4.43051,3.544406 -1.67378,2.018382 -3.34749,4.036682 -5.02124,6.055024 -0.63997,2.166067 -1.27992,4.33205 -1.91988,6.498074 -0.0492,1.575321 -0.0985,3.150582 -0.14769,4.725874 0.88612,1.427636 1.7722,2.855214 2.65831,4.282821 2.80604,0.738433 5.61197,1.476835 8.41796,2.215253 2.70758,0.935347 5.41506,1.870657 8.12259,2.805985 2.65835,0.443061 5.31659,0.886103 7.97491,1.329153 1.3784,0.147685 2.75675,0.295368 4.13512,0.44305 0.49231,0.246145 0.98457,0.492279 1.47686,0.738418 z"
       transform="matrix(1.9208905,-0.49529788,0.49529788,1.9208905,-189.52286,40.501803)" /><path
       style="opacity:0.6;fill:#ff0000;fill-opacity:1;stroke:#ff0000;stroke-width:1.06;stroke-linecap:butt;stroke-linejoin:round;stroke-miterlimit:3.8;stroke-opacity:1"
       d="m 279.31876,82.825841 c 0.98456,-4.799712 2.4614,-14.645284 2.87982,-20.3065 0.41843,-5.661217 -0.22152,-7.138019 -2.04298,-8.245652 -1.82145,-1.107633 -4.82429,-1.846036 -7.65492,-2.116789 -2.83063,-0.270753 -5.48887,-0.07385 -7.95029,0.516898 -2.46142,0.590745 -4.72585,1.57528 -6.59652,2.658306 -1.87068,1.083025 -3.34749,2.264471 -4.92279,3.864395 -1.57531,1.599924 -3.24902,3.618223 -4.40588,5.710427 -1.15686,2.092205 -1.79681,4.258189 -2.14141,6.128861 -0.34459,1.870672 -0.39382,3.445935 0.0246,4.947398 0.41844,1.501463 1.30452,2.929039 3.1506,4.01206 1.84607,1.083021 4.652,1.821423 7.40879,2.658306 2.75678,0.836882 5.46426,1.772193 8.1472,2.461386 2.68294,0.689194 5.34118,1.132234 7.35954,1.427604 2.01836,0.29537 3.39671,0.443051 4.33205,0.639967 0.93534,0.196917 1.4276,0.443044 2.41216,-4.356667 z"
       id="path17-9-0"
       inkscape:path-effect="#path-effect18-2-2"
       inkscape:original-d="m 278.82649,87.871693 c 1.47682,-9.845566 2.95367,-19.691135 4.4305,-29.536704 -0.63998,-1.476865 -1.27993,-2.953668 -1.9199,-4.430504 -3.00294,-0.738433 -6.00578,-1.476835 -9.00869,-2.215253 -2.65835,0.196914 -5.31659,0.393822 -7.9749,0.590733 -2.26453,0.984578 -4.52896,1.969114 -6.79344,2.95367 -1.47687,1.181492 -2.95368,2.362936 -4.43051,3.544406 -1.67378,2.018382 -3.34749,4.036682 -5.02124,6.055024 -0.63997,2.166067 -1.27992,4.33205 -1.91988,6.498074 -0.0492,1.575321 -0.0985,3.150582 -0.14769,4.725874 0.88612,1.427636 1.7722,2.855214 2.65831,4.282821 2.80604,0.738433 5.61197,1.476835 8.41796,2.215253 2.70758,0.935347 5.41506,1.870657 8.12259,2.805985 2.65835,0.443061 5.31659,0.886103 7.97491,1.329153 1.3784,0.147685 2.75675,0.295368 4.13512,0.44305 0.49231,0.246145 0.98457,0.492279 1.47686,0.738418 z"
       transform="matrix(-1.9208905,0.49529788,-0.49529788,-1.9208905,962.06971,96.321213)" /><circle
       style="fill:#000000;fill-opacity:1;stroke:#000000;stroke-width:2.05825;stroke-linecap:butt;stroke-linejoin:round;stroke-miterlimit:3.8;stroke-opacity:1"
       id="path16-0"
       cx="388.04129"
       cy="68.833344"
       r="7.5781493" /><text
       xml:space="preserve"
       transform="scale(0.26458333)"
       id="text25"
       style="font-size:10.6667px;line-height:0.6;font-family:sans-serif;-inkscape-font-specification:'sans-serif, Normal';white-space:pre;shape-inside:url(#rect25);display:inline;opacity:1;fill:#000000;fill-opacity:0;stroke:#000000;stroke-width:4.0063;stroke-miterlimit:3.8;stroke-opacity:1" /><text
       xml:space="preserve"
       transform="scale(0.26458333)"
       id="text27"
       style="font-size:10.6667px;line-height:0.6;font-family:sans-serif;-inkscape-font-specification:'sans-serif, Normal';white-space:pre;shape-inside:url(#rect27);display:inline;opacity:1;fill:#000000;fill-opacity:1;stroke:#000000;stroke-width:4.0063;stroke-miterlimit:3.8;stroke-opacity:0.940476" /><path
       style="fill:none;fill-opacity:1;stroke:#000000;stroke-width:1.065;stroke-miterlimit:3.8;stroke-opacity:1;marker-end:url(#Triangle)"
       d="m 52.611535,167.92076 c 121.033795,0 242.067595,0 363.101365,0"
       id="path2"
       inkscape:path-effect="#path-effect2"
       inkscape:original-d="m 52.611535,167.92076 c 121.033795,0 242.067595,0 363.101365,0"
       transform="translate(-15.875,-10.583333)" /><text
       xml:space="preserve"
       style="font-size:2.82223px;line-height:0.6;font-family:sans-serif;-inkscape-font-specification:'sans-serif, Normal';fill:none;fill-opacity:1;stroke:#000000;stroke-width:1.065;stroke-miterlimit:3.8;stroke-opacity:1"
       x="197.29712"
       y="176.9487"
       id="text2"><tspan
         sodipodi:role="line"
         id="tspan2"
         style="stroke-width:1.065"
         x="197.29712"
         y="176.9487">Time</tspan></text></g></svg>
